<?xml version="1.0" standalone="no"?>
<!DOCTYPE svg PUBLIC "-//W3C//DTD SVG 1.1//EN" "http://www.w3.org/Graphics/SVG/1.1/DTD/svg11.dtd" >
<svg>
<metadata>
Created by FontForge 20110222 at Fri Sep  5 06:28:10 2014
 By Orthosie Webhosting
Copyright (c) 1990, 2002 Adobe Systems Incorporated.  All Rights Reserved. (c) 1981, 2002 Heidelberger Druckmaschinen AG. All rights reserved.
</metadata>
<defs>
<font id="HelveticaNeueLTStd77BoldCondensedOblique" horiz-adv-x="480" >
  <font-face 
    font-family="HelveticaNeueLTStd77BoldCondensedOblique"
    font-weight="700"
    font-style="oblique"
    font-stretch="condensed"
    units-per-em="1000"
    panose-1="2 11 7 6 3 5 2 3 2 4"
    ascent="714"
    descent="-286"
    x-height="538"
    cap-height="714"
    bbox="-171 -271 1117.02 961"
    underline-thickness="50"
    underline-position="-50"
    slope="-12"
    unicode-range="U+0020-FB02"
  />
<missing-glyph horiz-adv-x="648" 
d="M148 0v700h500v-700h-500zM398 395l170 255h-340zM428 350l170 -255v510zM228 50h340l-170 255zM198 605v-510l170 255z" />
    <glyph glyph-name="fi" unicode="fi" horiz-adv-x="537" 
d="M348 0l114 538h138l-114 -538h-138zM476 604l25 118h138l-25 -118h-138zM76 0l94 444h-70l20 94h70l13 61q15 70 58 99.5t114 29.5q37 0 73 -3l-21 -98q-9 1 -27 1q-29 0 -43 -10t-19 -33l-10 -47h80l-20 -94h-80l-94 -444h-138z" />
    <glyph glyph-name="fl" unicode="fl" horiz-adv-x="537" 
d="M348 0l153 722h138l-153 -722h-138zM76 0l94 444h-70l20 94h70l13 61q15 70 58 99.5t114 29.5q37 0 73 -3l-21 -98q-9 1 -27 1q-29 0 -43 -10t-19 -33l-10 -47h80l-20 -94h-80l-94 -444h-138z" />
    <glyph glyph-name=".notdef" horiz-adv-x="648" 
d="M148 0v700h500v-700h-500zM398 395l170 255h-340zM428 350l170 -255v510zM228 50h340l-170 255zM198 605v-510l170 255z" />
    <glyph glyph-name=".null" horiz-adv-x="0" 
 />
    <glyph glyph-name="nonmarkingreturn" horiz-adv-x="333" 
 />
    <glyph glyph-name="space" unicode=" " horiz-adv-x="240" 
 />
    <glyph glyph-name="exclam" unicode="!" horiz-adv-x="296" 
d="M240 199h-100l41 283l50 232h138l-50 -232zM107 132h138l-28 -132h-138z" />
    <glyph glyph-name="quotedbl" unicode="&#x22;" horiz-adv-x="463" 
d="M351 393l68 321h124l-68 -321h-124zM156 393l68 321h124l-68 -321h-124z" />
    <glyph glyph-name="numbersign" unicode="#" 
d="M37 174l24 112h87l42 122h-73l24 112h86l59 174h96l-58 -174h97l59 174h97l-59 -174h73l-24 -112h-86l-42 -122h73l-24 -112h-86l-59 -174h-97l59 174h-98l-58 -174h-97l59 174h-74zM286 408l-41 -122h97l42 122h-98z" />
    <glyph glyph-name="dollar" unicode="$" 
d="M326 269l-37 -177q30 6 49.5 28t25.5 52q13 67 -38 97zM299 442l34 160q-52 -15 -65 -76q-12 -55 31 -84zM184 -101l18 87q-59 5 -95.5 23t-49.5 45.5t-15.5 63t8.5 73.5l4 21h138q-5 -24 -7 -40.5t0 -34.5t12 -29t28 -16l42 202l-46 18q-126 50 -96 192q19 90 79 142
t151 62l15 69h64l-15 -69q182 -15 145 -189l-3 -14h-138q16 83 -26 97l-40 -189l72 -32q57 -26 79 -65t6 -116q-23 -106 -84 -156.5t-164 -57.5l-18 -87h-64z" />
    <glyph glyph-name="percent" unicode="%" horiz-adv-x="778" 
d="M595 181q-14 -59 -11.5 -89t30.5 -30t42 27t27 92q14 53 11 82t-31 29t-41 -25t-27 -86zM489 177q22 103 61.5 147t128.5 44t112 -47t-2 -144q-22 -103 -62 -147t-129 -44t-111.5 47t2.5 144zM137 517q22 103 61.5 147t128.5 44t112 -47t-2 -144q-22 -103 -62 -147
t-129 -44t-111.5 47t2.5 144zM244 521q-15 -59 -12.5 -89t30.5 -30t42 26.5t28 92.5q13 53 10 82t-31 29t-41 -25.5t-26 -85.5zM133 -31l567 756h89l-567 -756h-89z" />
    <glyph glyph-name="ampersand" unicode="&#x26;" horiz-adv-x="593" 
d="M322 568q-6 -30 19 -78l12 -24l31 22q53 37 61 78q7 29 -7 44.5t-43 15.5q-26 0 -46.5 -15.5t-26.5 -42.5zM373 143l-83 170q-86 -57 -99 -121q-8 -37 13 -65.5t67 -28.5q57 0 102 45zM400 380l76 -145q36 51 48 108h124q-22 -107 -118 -211l66 -132h-153l-28 55
q-34 -32 -84 -50.5t-103 -18.5q-52 0 -89 14t-56 35t-27.5 50t-8.5 54.5t6 52.5q24 117 188 206l-18 37q-33 71 -20 129q15 69 74 109.5t140 40.5q88 0 124 -41.5t22 -107.5q-11 -52 -50 -96t-113 -89z" />
    <glyph glyph-name="quotesingle" unicode="'" horiz-adv-x="260" 
d="M152 393l68 321h124l-68 -321h-124z" />
    <glyph glyph-name="parenleft" unicode="(" horiz-adv-x="296" 
d="M342 714h106q-86 -112 -134.5 -216.5t-75.5 -232.5q-27 -126 -23 -231.5t42 -217.5h-106q-92 221 -45 449q48 226 236 449z" />
    <glyph glyph-name="parenright" unicode=")" horiz-adv-x="296" 
d="M152 714h106q93 -222 44 -449q-47 -225 -235 -449h-106q85 112 133.5 216.5t75.5 232.5q27 125 23.5 231t-41.5 218z" />
    <glyph glyph-name="asterisk" unicode="*" horiz-adv-x="390" 
d="M306 714h82l-27 -128l130 40l8 -78l-130 -40l54 -104l-77 -48l-53 104l-97 -104l-57 48l98 104l-114 40l42 78l114 -40z" />
    <glyph glyph-name="plus" unicode="+" horiz-adv-x="600" 
d="M238 0l41 191h-191l26 124h191l41 191h124l-41 -191h191l-26 -124h-191l-41 -191h-124z" />
    <glyph glyph-name="comma" unicode="," horiz-adv-x="240" 
d="M87 156h132l-27 -130q-19 -88 -57.5 -136t-115.5 -55l15 70q26 4 44.5 26.5t24.5 52.5l3 16h-52z" />
    <glyph glyph-name="hyphen" unicode="-" horiz-adv-x="370" 
d="M118 348h282l-25 -118h-282z" />
    <glyph glyph-name="period" unicode="." horiz-adv-x="240" 
d="M87 156h132l-33 -156h-132z" />
    <glyph glyph-name="slash" unicode="/" horiz-adv-x="332" 
d="M-6 -14l384 742h112l-384 -742h-112z" />
    <glyph glyph-name="zero" unicode="0" 
d="M242 376l-16 -77q-28 -133 -22 -176t53 -43t73 49.5t56 188.5l16 77q28 133 22 176t-53 43t-73 -49.5t-56 -188.5zM88 330q11 50 19 83.5t22 76.5t29 71.5t37.5 59t49.5 47.5t64 28.5t81 11.5q127 0 159 -78t-10 -266q-11 -50 -19 -83.5t-22 -77t-29 -71.5t-37.5 -58.5
t-49.5 -48t-64 -28.5t-81 -11q-126 0 -158.5 78t9.5 266z" />
    <glyph glyph-name="one" unicode="1" 
d="M326 0h-144l106 500h-141l20 94h13q146 0 190 114h106z" />
    <glyph glyph-name="two" unicode="2" 
d="M478 112l-24 -112h-436q20 92 72 163.5t150 146.5l69 54q55 42 76 74t33 88q18 88 -51 88q-49 0 -72 -35t-38 -103h-138l6 27q44 205 263 205q105 0 148 -50t23 -143q-14 -69 -49.5 -119.5t-107.5 -105.5l-96 -74q-71 -54 -95 -104h267z" />
    <glyph glyph-name="three" unicode="3" 
d="M64 207h138q-14 -61 -3.5 -94t55.5 -33q48 0 69.5 29.5t33.5 84.5q6 32 6.5 59t-18 44.5t-55.5 17.5h-48l20 94h47q42 0 68.5 32t37.5 80q10 49 -1.5 71t-47.5 22q-43 0 -64.5 -29t-33.5 -86h-132q45 209 252 209q98 0 141.5 -45t24.5 -137q-13 -63 -50.5 -104t-90.5 -52
l-1 -2q122 -19 91 -167q-8 -40 -25.5 -74.5t-48.5 -68t-84 -53t-123 -19.5q-101 0 -140.5 57.5t-18.5 160.5z" />
    <glyph glyph-name="four" unicode="4" 
d="M321 259l57 269h-2l-195 -269h140zM45 147l25 118l329 443h149l-95 -449h68l-24 -112h-68l-31 -147h-132l31 147h-252z" />
    <glyph glyph-name="five" unicode="5" 
d="M573 694l-24 -112h-261l-50 -161h2q50 53 142 53q64 0 98 -33.5t35.5 -84t-8.5 -108.5q-27 -128 -91 -195t-192 -67q-52 0 -88 13t-53.5 33t-25.5 48t-7 52t7 51l4 19h138q-25 -116 45 -116q84 0 114 138q18 88 7.5 119t-59.5 31q-60 0 -81 -65h-129l108 385h369z" />
    <glyph glyph-name="six" unicode="6" 
d="M561 528h-138q19 86 -46 86q-53 0 -80.5 -45.5t-46.5 -134.5l-7 -35h2q53 61 146 61q90 0 119 -59.5t7 -161.5q-55 -253 -283 -253q-57 0 -95 18.5t-55 47.5t-21 74.5t1 88.5t17 102q9 42 14.5 66.5t16 63t20 61.5t24 54t30.5 49.5t38.5 39t48 31.5t58.5 18.5t71 7.5
q40 0 71.5 -9t56.5 -30t32 -55.5t-1 -85.5zM212 220q-16 -61 -6.5 -100.5t55.5 -39.5q48 0 70.5 35t37.5 105q15 72 3.5 103t-53.5 31q-43 0 -67.5 -31t-39.5 -103z" />
    <glyph glyph-name="seven" unicode="7" 
d="M170 694h436l-24 -110q-109 -119 -194.5 -272.5t-137.5 -311.5h-151q111 327 342 570h-298z" />
    <glyph glyph-name="eight" unicode="8" 
d="M57 200q14 69 55 116t102 59v2q-50 14 -66.5 53t-6.5 83q42 195 249 195q209 0 167 -195q-10 -44 -43 -83t-88 -53v-2q55 -12 76 -59t7 -116q-6 -28 -16 -53.5t-31 -56.5t-49 -52.5t-74 -36.5t-102 -15t-95.5 15t-58.5 37t-27 52t-6.5 56t7.5 54zM280 517
q-10 -48 3.5 -73.5t45.5 -25.5t56.5 25.5t34.5 73.5q20 97 -49 97q-71 0 -91 -97zM201 202q-25 -122 56 -122q83 0 108 122t-56 122q-83 0 -108 -122z" />
    <glyph glyph-name="nine" unicode="9" 
d="M66 165h138q-18 -85 47 -85q53 0 80 45.5t46 134.5l7 34h-2q-52 -60 -145 -60q-90 0 -119 59.5t-7 161.5q53 253 282 253q57 0 95 -18.5t55.5 -47.5t21.5 -74.5t-1.5 -89t-17.5 -101.5q-12 -55 -19.5 -86t-22 -78.5t-29.5 -75t-39 -60t-52.5 -50t-69 -29.5t-89.5 -12
q-86 0 -132 42t-27 137zM259 474q-16 -72 -4.5 -103t53.5 -31q43 0 67.5 31t40.5 103q16 61 6.5 100.5t-55.5 39.5q-48 0 -70.5 -35t-37.5 -105z" />
    <glyph glyph-name="colon" unicode=":" horiz-adv-x="240" 
d="M54 0l33 156h132l-33 -156h-132zM132 365l33 156h132l-33 -156h-132z" />
    <glyph glyph-name="semicolon" unicode=";" horiz-adv-x="240" 
d="M87 156h132l-27 -130q-19 -88 -57.5 -136t-115.5 -55l15 70q26 4 44.5 26.5t24.5 52.5l3 16h-52zM165 521h132l-33 -156h-132z" />
    <glyph glyph-name="less" unicode="&#x3c;" horiz-adv-x="600" 
d="M90 200l22 106l550 208l-26 -124l-367 -137l309 -137l-27 -124z" />
    <glyph glyph-name="equal" unicode="=" horiz-adv-x="600" 
d="M111 300l26 124h506l-26 -124h-506zM64 82l27 124h506l-27 -124h-506z" />
    <glyph glyph-name="greater" unicode="&#x3e;" horiz-adv-x="600" 
d="M45 -8l27 124l367 137l-309 137l26 124l462 -208l-22 -106z" />
    <glyph glyph-name="question" unicode="?" horiz-adv-x="481" 
d="M273 493h-132l5 23q19 93 82 149.5t159 56.5q103 0 146 -51.5t24 -141.5q-17 -85 -96 -156l-49 -45q-34 -31 -50 -54.5t-24 -60.5l-3 -15h-124l8 39q11 50 32 84t64 73l47 43q47 43 60 106q8 39 -4.5 62t-45.5 23q-70 0 -94 -110zM190 132h138l-28 -132h-138z" />
    <glyph glyph-name="at" unicode="@" horiz-adv-x="800" 
d="M368 326q-7 -34 8 -57.5t46 -23.5q49 0 91 40.5t52 87.5q7 31 -10.5 53.5t-48.5 22.5q-46 0 -87 -39.5t-51 -83.5zM626 488l24 53h88l-111 -250q-9 -21 -15 -41q-4 -20 16 -20q34 0 80 50.5t61 123.5q21 98 -44.5 164t-172.5 66q-115 0 -213.5 -84t-121.5 -194
q-25 -113 42 -194.5t182 -81.5q113 0 231 64h89q-145 -158 -364 -158q-154 0 -239.5 108.5t-52.5 262.5q32 154 164 262.5t286 108.5q100 0 176.5 -37t112.5 -107t17 -159q-16 -74 -58 -133t-91 -90t-91.5 -47t-70.5 -16q-29 0 -43.5 13.5t-10.5 39.5h-2q-61 -53 -131 -53
q-57 0 -91.5 47t-18.5 123q21 97 96.5 171.5t169.5 74.5q80 0 107 -67z" />
    <glyph glyph-name="A" unicode="A" horiz-adv-x="556" 
d="M0 0l341 714h178l37 -714h-150l-1 151h-190l-65 -151h-150zM402 590l-137 -321h140l-1 321h-2z" />
    <glyph glyph-name="B" unicode="B" horiz-adv-x="556" 
d="M50 0l152 714h241q202 0 164 -181q-12 -59 -49 -100t-92 -56v-2q58 -8 83.5 -52t10.5 -114q-19 -93 -84 -151t-183 -58h-243zM323 608l-40 -187h41q60 0 92.5 22t42.5 72q11 50 -9.5 71.5t-74.5 21.5h-52zM262 321l-45 -215h56q116 0 138 108q23 107 -87 107h-62z" />
    <glyph glyph-name="C" unicode="C" horiz-adv-x="537" 
d="M600 473h-144q17 78 5 113.5t-60 35.5q-53 0 -84 -59.5t-64 -215.5q-22 -106 -23.5 -162.5t13 -74.5t48.5 -18q44 0 74.5 37t53.5 144h144q-14 -63 -33 -110.5t-51.5 -89.5t-84 -64.5t-119.5 -22.5q-63 0 -104 18.5t-60.5 48.5t-23.5 80.5t2.5 100.5t21.5 123
q15 72 30.5 122.5t40.5 101t57.5 80.5t81.5 48.5t112 18.5q59 0 98 -17.5t56.5 -41.5t22 -62t1.5 -67t-11 -67z" />
    <glyph glyph-name="D" unicode="D" horiz-adv-x="574" 
d="M57 0l152 714h236q96 0 141 -43.5t43.5 -120.5t-22.5 -183q-42 -197 -113 -282t-210 -85h-227zM330 608l-106 -502h64q73 0 107.5 53.5t66.5 203.5q12 53 17 88t4.5 67.5t-10 50.5t-29.5 28.5t-53 10.5h-61z" />
    <glyph glyph-name="E" unicode="E" horiz-adv-x="481" 
d="M202 714h399l-25 -118h-255l-36 -168h240l-25 -118h-240l-41 -192h265l-25 -118h-409z" />
    <glyph glyph-name="F" unicode="F" horiz-adv-x="463" 
d="M50 0l152 714h399l-25 -118h-255l-36 -168h240l-25 -118h-240l-66 -310h-144z" />
    <glyph glyph-name="G" unicode="G" horiz-adv-x="556" 
d="M612 502h-138q10 46 -3.5 83t-53.5 37q-52 0 -87 -58t-64 -192q-31 -129 -24.5 -204.5t64.5 -75.5q30 0 65.5 30.5t47.5 83.5l15 73h-95l23 106h233l-82 -385h-106l14 66h-2q-66 -80 -167 -80q-65 0 -102.5 23.5t-49 74.5t-6 116.5t26.5 164.5q40 188 112 275.5t205 87.5
q116 0 157 -57t17 -169z" />
    <glyph glyph-name="H" unicode="H" horiz-adv-x="556" 
d="M50 0l152 714h144l-58 -273h168l58 273h144l-152 -714h-144l67 317h-168l-67 -317h-144z" />
    <glyph glyph-name="I" unicode="I" horiz-adv-x="258" 
d="M201 0h-144l152 714h144z" />
    <glyph glyph-name="J" unicode="J" horiz-adv-x="463" 
d="M427 714h144l-109 -514q-24 -113 -87 -163.5t-174 -50.5q-72 0 -110 29.5t-41.5 75.5t6.5 104l7 31h132l-5 -22q-14 -57 -5 -84.5t46 -27.5t55.5 26t31.5 86z" />
    <glyph glyph-name="K" unicode="K" horiz-adv-x="537" 
d="M202 714h144l-61 -286h2l243 286h156l-259 -306l129 -408h-162l-85 293l-70 -81l-45 -212h-144z" />
    <glyph glyph-name="L" unicode="L" horiz-adv-x="463" 
d="M449 0h-399l152 714h144l-127 -596h255z" />
    <glyph glyph-name="M" unicode="M" horiz-adv-x="740" 
d="M53 0l152 714h214l-5 -504h2l210 504h213l-152 -714h-132l121 570h-2l-248 -570h-112l-6 570h-2l-121 -570h-132z" />
    <glyph glyph-name="N" unicode="N" horiz-adv-x="574" 
d="M202 714h166l70 -489h2l104 489h132l-152 -714h-164l-70 500h-2l-106 -500h-132z" />
    <glyph glyph-name="O" unicode="O" horiz-adv-x="556" 
d="M111 357q15 72 30.5 122.5t40.5 101t57.5 80.5t81.5 48.5t112 18.5t104 -18.5t60.5 -48.5t23.5 -80.5t-2.5 -100.5t-21.5 -123q-15 -72 -30.5 -122.5t-40.5 -101t-57.5 -80.5t-81.5 -48.5t-112 -18.5t-104 18.5t-60.5 48.5t-23.5 80.5t2.5 100.5t21.5 123zM255 357
q-16 -77 -22.5 -123t-3 -80.5t20 -48t48.5 -13.5q61 0 92 56.5t63 208.5q33 143 25.5 204t-68.5 61t-92 -57t-63 -208z" />
    <glyph glyph-name="P" unicode="P" horiz-adv-x="519" 
d="M50 0l152 714h252q101 0 135 -61.5t15 -152.5q-23 -108 -94.5 -161.5t-177.5 -53.5h-77l-61 -285h-144zM323 608l-46 -217h64q44 0 75.5 27t43.5 80q24 110 -77 110h-60z" />
    <glyph glyph-name="Q" unicode="Q" horiz-adv-x="556" 
d="M541 -11l-102 -77l-66 88q-23 -8 -46 -11q-24 -3 -52 -3q-63 0 -104 18.5t-60.5 48.5t-23.5 80.5t2.5 100.5t21.5 123q15 72 30.5 122.5t40.5 101t57.5 80.5t81.5 48.5t112 18.5t104 -18.5t60.5 -48.5t23.5 -80.5t-2.5 -100.5t-21.5 -123q-45 -212 -117 -290zM255 357
q-16 -77 -22.5 -123t-3 -80.5t20 -48t48.5 -13.5q61 0 92 56.5t63 208.5q33 143 25.5 204t-68.5 61t-92 -57t-63 -208z" />
    <glyph glyph-name="R" unicode="R" horiz-adv-x="556" 
d="M323 608l-44 -206h60q109 0 131 107q21 99 -79 99h-68zM50 0l152 714h266q90 0 130 -47t21 -137q-33 -151 -157 -176v-2q69 -9 81.5 -57t-13.5 -161q-12 -63 -12 -90.5t17 -37.5l-1 -6h-156q-11 23 -2 75l25 137q16 90 -66 90h-77l-64 -302h-144z" />
    <glyph glyph-name="S" unicode="S" horiz-adv-x="519" 
d="M69 223h144l-4 -21q-11 -55 3.5 -82.5t68.5 -27.5q36 0 66 23t38 65q10 47 -12 71.5t-90 50.5q-92 34 -125.5 82t-15.5 134q22 103 92 156.5t174 53.5q102 0 151.5 -47t28.5 -145l-4 -20h-138q22 106 -56 106q-83 0 -99 -83q-8 -35 2.5 -56.5t50.5 -40.5l101 -48
q71 -34 90.5 -77t5.5 -112q-48 -219 -295 -219q-119 0 -162 53t-21 155z" />
    <glyph glyph-name="T" unicode="T" 
d="M164 714h456l-25 -118h-156l-127 -596h-144l127 596h-156z" />
    <glyph glyph-name="U" unicode="U" horiz-adv-x="538" 
d="M193 714h144l-106 -498q-15 -53 -2 -88.5t60 -35.5t72.5 32.5t37.5 91.5l106 498h144l-106 -498q-49 -230 -277 -230q-31 0 -56.5 4t-51 13.5t-41.5 26t-28 42t-11 61t9 83.5z" />
    <glyph glyph-name="V" unicode="V" horiz-adv-x="519" 
d="M155 714h154l-11 -528h3l218 528h149l-316 -714h-185z" />
    <glyph glyph-name="W" unicode="W" horiz-adv-x="760" 
d="M138 0l22 714h138l-33 -528h2l196 528h138l-28 -528h2l191 528h138l-282 -714h-161l30 518h-2l-190 -518h-161z" />
    <glyph glyph-name="X" unicode="X" horiz-adv-x="537" 
d="M261 361l-89 353h159l43 -231l140 231h157l-241 -353l101 -361h-162l-52 242l-153 -242h-158z" />
    <glyph glyph-name="Y" unicode="Y" horiz-adv-x="520" 
d="M155 714h162l35 -276h2l159 276h156l-277 -433l-60 -281h-144l60 281z" />
    <glyph glyph-name="Z" unicode="Z" horiz-adv-x="481" 
d="M24 0l22 105l368 491h-245l25 118h411l-23 -109l-371 -487h271l-25 -118h-433z" />
    <glyph glyph-name="bracketleft" unicode="[" horiz-adv-x="315" 
d="M41 -184l191 898h229l-21 -100h-105l-149 -698h105l-21 -100h-229z" />
    <glyph glyph-name="backslash" unicode="\" horiz-adv-x="332" 
d="M220 -14l-68 742h112l68 -742h-112z" />
    <glyph glyph-name="bracketright" unicode="]" horiz-adv-x="315" 
d="M-33 -184l21 100h105l149 698h-105l21 100h229l-191 -898h-229z" />
    <glyph glyph-name="asciicircum" unicode="^" horiz-adv-x="600" 
d="M246 309h-124l270 385h112l106 -385h-124l-68 247z" />
    <glyph glyph-name="underscore" unicode="_" horiz-adv-x="500" 
d="M473 -125h-500l11 50h500z" />
    <glyph glyph-name="grave" unicode="`" horiz-adv-x="222" 
d="M304 601h-94l-68 144h138z" />
    <glyph glyph-name="a" unicode="a" horiz-adv-x="481" 
d="M248 373h-124l3 13q18 87 78.5 126.5t145.5 39.5q114 0 146 -41.5t14 -123.5l-60 -283q-14 -64 -5 -104h-132q-5 17 -5 56h-2q-32 -40 -66 -55t-86 -15q-66 0 -88.5 46t-8.5 108q15 74 54.5 111t116.5 57l83 21q32 8 47.5 22t20.5 41q14 66 -50 66q-31 0 -51.5 -19
t-27.5 -51zM332 163l22 106q-30 -19 -65 -27q-43 -9 -65.5 -30t-30.5 -57q-16 -75 36 -75q32 0 63 21t40 62z" />
    <glyph glyph-name="b" unicode="b" horiz-adv-x="500" 
d="M241 269q-13 -63 -15.5 -99t9.5 -57t42 -21q43 0 66 41t43 136q21 88 15 132.5t-49 44.5t-67 -41.5t-44 -135.5zM46 0l152 714h138l-48 -226h2q57 64 129 64q86 0 111 -66.5t-6 -216.5q-31 -149 -85 -216t-140 -67q-80 0 -107 71h-2l-12 -57h-132z" />
    <glyph glyph-name="c" unicode="c" horiz-adv-x="463" 
d="M510 344h-132q23 108 -39 108q-48 0 -72.5 -42t-45.5 -142q-15 -71 -17.5 -109t9 -58.5t42.5 -20.5q34 0 57 30.5t37 95.5h132q-23 -109 -84 -164.5t-168 -55.5t-143 63t-3 220q33 156 103.5 219.5t174.5 63.5q94 0 132 -55.5t17 -152.5z" />
    <glyph glyph-name="d" unicode="d" horiz-adv-x="500" 
d="M228 269q-21 -88 -14.5 -132.5t49.5 -44.5t66.5 41t43.5 136q10 47 13.5 77.5t1 54.5t-14.5 34.5t-35 10.5q-43 0 -66.5 -41.5t-43.5 -135.5zM322 0l12 57h-2q-58 -71 -137 -71q-85 0 -110.5 66.5t5.5 216.5q32 149 86 216t139 67q73 0 103 -64h2l48 226h138l-152 -714
h-132z" />
    <glyph glyph-name="e" unicode="e" horiz-adv-x="463" 
d="M490 248h-273l-9 -43q-13 -47 -4 -86t45 -39q33 0 55 24.5t39 76.5h124q-48 -195 -236 -195q-42 0 -72.5 9.5t-49 23.5t-29 38.5t-13.5 46.5t-0.5 55t6.5 56.5t11 58.5q13 61 30 105.5t47.5 86.5t79.5 64t116 22q78 0 115.5 -34t38.5 -95t-15 -144zM234 330h141
q14 62 5.5 95t-48.5 33q-38 0 -61 -31.5t-32 -75.5z" />
    <glyph glyph-name="f" unicode="f" horiz-adv-x="296" 
d="M76 0l94 444h-70l20 94h70l13 61q15 70 58 99.5t114 29.5q37 0 73 -3l-21 -98q-9 1 -27 1q-29 0 -43 -10t-19 -33l-10 -47h80l-20 -94h-80l-94 -444h-138z" />
    <glyph glyph-name="g" unicode="g" horiz-adv-x="500" 
d="M431 538h132l-108 -511q-23 -108 -86.5 -159.5t-182.5 -51.5q-88 0 -127.5 37.5t-25.5 106.5h132q-4 -27 13 -41q18 -15 43 -15q77 0 96 97l15 71h-2q-59 -66 -129 -66q-84 0 -110.5 62t3.5 210q9 43 19.5 77.5t29 73t41.5 64t58.5 42.5t78.5 17q77 0 96 -74h2zM227 252
q-9 -42 -10.5 -70.5t10.5 -49t39 -20.5q41 0 66.5 40t41.5 114q21 98 14 139t-48 41q-44 0 -67 -41t-46 -153z" />
    <glyph glyph-name="h" unicode="h" horiz-adv-x="500" 
d="M46 0l152 714h138l-49 -231h2q53 69 145 69q137 0 105 -153l-85 -399h-138l79 371q8 40 -2 57.5t-41 17.5q-73 0 -92 -89l-76 -357h-138z" />
    <glyph glyph-name="i" unicode="i" horiz-adv-x="240" 
d="M51 0l114 538h138l-114 -538h-138zM179 604l25 118h138l-25 -118h-138z" />
    <glyph glyph-name="j" unicode="j" horiz-adv-x="240" 
d="M53 10l112 528h138l-122 -575q-15 -71 -56.5 -105t-130.5 -34q-16 0 -56 2l21 100q7 -2 22 -2q35 0 48.5 19t23.5 67zM179 604l25 118h138l-25 -118h-138z" />
    <glyph glyph-name="k" unicode="k" horiz-adv-x="500" 
d="M203 714h138l-80 -377h2l181 201h152l-200 -212l109 -326h-152l-68 221l-63 -64l-33 -157h-138z" />
    <glyph glyph-name="l" unicode="l" horiz-adv-x="240" 
d="M51 0l152 714h138l-152 -714h-138z" />
    <glyph glyph-name="m" unicode="m" horiz-adv-x="758" 
d="M46 0l114 538h132l-11 -55h2q63 69 150 69q48 0 76 -22.5t30 -63.5h2q50 86 154 86q134 0 100 -161l-83 -391h-138l80 376q14 70 -39 70q-34 0 -58 -23.5t-34 -68.5l-75 -354h-138l80 376q14 70 -39 70q-34 0 -58 -23.5t-34 -68.5l-75 -354h-138z" />
    <glyph glyph-name="n" unicode="n" horiz-adv-x="500" 
d="M46 0l114 538h132l-13 -63h2q58 77 153 77q137 0 105 -153l-85 -399h-138l79 371q8 40 -2 57.5t-41 17.5q-73 0 -92 -89l-76 -357h-138z" />
    <glyph glyph-name="o" unicode="o" 
d="M85 269q30 143 93.5 213t178.5 70q82 1 122.5 -30.5t45 -95t-15.5 -157.5q-30 -143 -93.5 -213t-178.5 -70q-82 -1 -122.5 30.5t-45 95t15.5 157.5zM223 269q-10 -48 -14 -77t-3 -57.5t13.5 -41.5t37.5 -13q41 0 67 43.5t47 145.5q15 68 16.5 109t-10.5 60.5t-40 19.5
q-46 0 -69.5 -45.5t-44.5 -143.5z" />
    <glyph glyph-name="p" unicode="p" horiz-adv-x="500" 
d="M241 269q-13 -63 -15.5 -99t9.5 -57t42 -21q43 0 66 41t43 136q21 88 15 132.5t-49 44.5t-67 -41.5t-44 -135.5zM9 -176l151 714h132l-12 -57h2q58 71 137 71q86 0 111 -66.5t-6 -216.5q-31 -149 -85 -216t-140 -67q-74 0 -102 64h-2l-48 -226h-138z" />
    <glyph glyph-name="q" unicode="q" horiz-adv-x="500" 
d="M373 269q10 47 13.5 77.5t1 54.5t-14.5 34.5t-35 10.5q-43 0 -66.5 -41.5t-43.5 -135.5q-21 -88 -14.5 -132.5t49.5 -44.5t66.5 41t43.5 136zM279 -176l48 226h-2q-58 -64 -130 -64q-85 0 -110.5 66.5t5.5 216.5q32 149 86 216t139 67q80 0 107 -71h2l12 57h132
l-151 -714h-138z" />
    <glyph glyph-name="r" unicode="r" horiz-adv-x="333" 
d="M46 0l114 538h132l-15 -72h2q65 86 142 86q9 0 25 -2l-28 -132q-28 2 -43 2q-41 0 -76.5 -23.5t-45.5 -73.5l-69 -323h-138z" />
    <glyph glyph-name="s" unicode="s" horiz-adv-x="444" 
d="M60 176h124l-3 -18q-8 -36 6 -57t49 -21q69 0 84 64q8 42 -37 61l-90 35q-106 41 -83 150q15 72 73 117t159 45q92 0 129.5 -39.5t22.5 -113.5l-5 -22h-124q9 41 -1 61q-9 20 -43 20q-28 0 -49.5 -15.5t-27.5 -42.5q-10 -43 47 -63l77 -28q60 -22 79.5 -57.5t6.5 -96.5
q-17 -82 -81.5 -125.5t-154.5 -43.5q-110 0 -145 43.5t-17 127.5z" />
    <glyph glyph-name="t" unicode="t" horiz-adv-x="296" 
d="M190 538l33 154h138l-33 -154h80l-20 -94h-80l-61 -291q-8 -31 -0.5 -45t36.5 -14q13 0 31 2l-20 -96q-62 -6 -91 -6q-79 0 -98 30t0 112l65 308h-70l20 94h70z" />
    <glyph glyph-name="u" unicode="u" horiz-adv-x="500" 
d="M322 0l13 63h-2q-58 -77 -153 -77q-137 0 -104 153l84 399h138l-79 -371q-8 -40 2.5 -57.5t41.5 -17.5q73 0 91 89l76 357h138l-114 -538h-132z" />
    <glyph glyph-name="v" unicode="v" horiz-adv-x="444" 
d="M261 153l154 385h138l-249 -538h-160l-25 538h144l-4 -385h2z" />
    <glyph glyph-name="w" unicode="w" horiz-adv-x="704" 
d="M124 0l-3 538h138l-18 -382h2l148 382h150l-10 -382h2l146 382h132l-230 -538h-157l10 382h-2l-148 -382h-160z" />
    <glyph glyph-name="x" unicode="x" horiz-adv-x="462" 
d="M311 376l108 162h144l-195 -261l87 -277h-144l-43 176l-117 -176h-144l205 277l-85 261h144z" />
    <glyph glyph-name="y" unicode="y" horiz-adv-x="444" 
d="M9 -176l21 103q18 -3 36 -3q68 0 90 76l-37 538h144l1 -372h2l149 372h138l-236 -502q-46 -96 -78 -139t-69 -58t-105 -15h-56z" />
    <glyph glyph-name="z" unicode="z" horiz-adv-x="426" 
d="M24 0l23 106l283 320h-205l23 112h368l-22 -106l-283 -320h215l-24 -112h-378z" />
    <glyph glyph-name="braceleft" unicode="{" horiz-adv-x="315" 
d="M78 224l17 82q26 0 51 23.5t32 57.5l41 193q14 64 48 99t85 35h89l-21 -100h-30q-40 0 -55 -72l-35 -166q-10 -44 -36 -74t-59 -36l-1 -2q31 -6 44.5 -36t4.5 -74l-36 -166q-15 -72 24 -72h30l-21 -100h-89q-51 0 -70.5 35t-5.5 99l41 193q7 34 -7.5 57.5t-40.5 23.5z
" />
    <glyph glyph-name="bar" unicode="|" horiz-adv-x="425" 
d="M237 813h101v-1084h-101v1084z" />
    <glyph glyph-name="braceright" unicode="}" horiz-adv-x="315" 
d="M-13 -184l21 100h30q39 0 54 72l36 166q9 44 35 74t60 36l1 2q-32 6 -45.5 36t-3.5 74l35 166q15 72 -23 72h-30l21 100h89q51 0 70 -35t5 -99l-41 -193q-7 -34 8 -57.5t41 -23.5l-17 -82q-26 0 -51.5 -23.5t-32.5 -57.5l-41 -193q-14 -64 -47.5 -99t-84.5 -35h-89z" />
    <glyph glyph-name="asciitilde" unicode="~" horiz-adv-x="600" 
d="M569 349l14 -106q-64 -86 -142 -86q-52 0 -110 34q-60 34 -88 34q-27 0 -58.5 -22.5t-46.5 -45.5l-13 106q64 86 141 86q53 0 103 -29q40 -23 58 -31t38 -8q27 0 58.5 23t45.5 45z" />
    <glyph glyph-name="uni00A0" unicode="&#xa0;" horiz-adv-x="240" 
 />
    <glyph glyph-name="exclamdown" unicode="&#xa1;" horiz-adv-x="296" 
d="M42 -176l49 232l79 283h100l-41 -283l-49 -232h-138zM165 406l28 132h138l-28 -132h-138z" />
    <glyph glyph-name="cent" unicode="&#xa2;" 
d="M240 86l78 366q-33 -11 -52.5 -54t-36.5 -127q-6 -27 -8.5 -40.5t-6.5 -38.5t-4 -38.5t2 -29.5t9 -25t19 -13zM200 -102l19 88q-34 2 -59 9.5t-45.5 27t-30.5 50t-9.5 79t14.5 113.5q10 49 22.5 87t33 75t46.5 62.5t63.5 42.5t84.5 20l16 76h52l-16 -76q28 -2 49.5 -8
t43 -19.5t31 -36t14 -57.5t-7.5 -83h-132q19 89 -19 104l-78 -366q47 25 67 123h132q-21 -101 -74.5 -157t-145.5 -66l-19 -88h-52z" />
    <glyph glyph-name="sterling" unicode="&#xa3;" 
d="M74 306l17 82h67q-26 88 -14 142q17 79 82 128.5t169 49.5q215 0 174 -207h-132q13 47 0.5 80t-53.5 33q-44 0 -69 -22.5t-32 -56.5q-8 -38 7 -90l15 -57h167l-17 -82h-141q2 -10 -3 -39q-10 -44 -37.5 -79.5t-85.5 -76.5l3 -2q28 7 47 7q13 0 51 -15t56 -15q41 0 113 42
l24 -94q-84 -48 -159 -48q-22 0 -82 18t-92 18q-42 0 -104 -28l-23 86q60 34 102 80.5t53 96.5q4 20 -1 49h-102z" />
    <glyph glyph-name="currency" unicode="&#xa4;" 
d="M84 107l-48 62l61 50q-27 57 -12 128t66 128l-39 50l74 62l40 -50q66 39 136 39t120 -39l62 50l48 -62l-61 -50q27 -58 12 -128q-15 -69 -66 -128l39 -50l-74 -62l-40 51q-67 -40 -137 -40q-71 0 -119 40zM191 347q-13 -60 13 -94.5t82 -34.5t97 34.5t54 94.5t-13.5 94.5
t-82.5 34.5t-96.5 -34.5t-53.5 -94.5z" />
    <glyph glyph-name="yen" unicode="&#xa5;" 
d="M178 0l34 159h-142l17 82h142l9 43l-6 23h-131l18 82h92l-80 305h149l49 -269h2l170 269h144l-210 -305h92l-18 -82h-131l-16 -23l-9 -43h142l-17 -82h-142l-34 -159h-124z" />
    <glyph glyph-name="brokenbar" unicode="&#xa6;" horiz-adv-x="425" 
d="M237 732h101v-379h-101v379zM237 190h101v-379h-101v379z" />
    <glyph glyph-name="section" unicode="&#xa7;" horiz-adv-x="481" 
d="M46 37h132l-3 -15q-8 -37 7 -58.5t46 -21.5q33 0 53.5 19.5t26.5 47.5t-4.5 47.5t-41.5 36.5l-111 59q-95 52 -73 154q10 46 42 84t78 59q-50 45 -35 114q18 85 83 125t157 40q97 0 134 -43.5t21 -118.5h-132q7 31 -3 49q-12 19 -51 19q-28 0 -48.5 -16.5t-25.5 -40.5
q-8 -39 49 -69l107 -56q99 -52 75 -163q-8 -39 -38.5 -80t-69.5 -62q45 -42 28 -124q-37 -175 -241 -175q-100 0 -141.5 46t-23.5 128zM223 272l87 -54q20 -12 34 -25q56 40 63 75q5 26 -6 44t-45 38l-85 51q-61 -33 -71 -75q-3 -15 3 -30t20 -24z" />
    <glyph glyph-name="dieresis" unicode="&#xa8;" horiz-adv-x="222" 
d="M99 610l25 118h112l-25 -118h-112zM271 610l25 118h112l-25 -118h-112z" />
    <glyph glyph-name="copyright" unicode="&#xa9;" horiz-adv-x="800" 
d="M558 298h100q-26 -72 -86 -114t-127 -42q-93 0 -136.5 62.5t-23.5 155.5q20 95 88 156.5t162 61.5q70 0 111.5 -40.5t34.5 -112.5h-96q-2 67 -73 67q-50 0 -85.5 -36.5t-47.5 -95.5q-12 -56 8 -94t67 -38q36 0 64.5 19t39.5 51zM217 357q-24 -110 34 -187.5t169 -77.5
q110 0 200.5 77.5t114.5 187.5t-34 187.5t-169 77.5q-110 0 -200.5 -77.5t-114.5 -187.5zM105 357q32 154 164 262.5t286 108.5t239 -108.5t53 -262.5q-33 -154 -164.5 -262.5t-285.5 -108.5t-239.5 108.5t-52.5 262.5z" />
    <glyph glyph-name="ordfeminine" unicode="&#xaa;" horiz-adv-x="314" 
d="M422 609l-36 -172q-8 -39 -3 -63h-100q-1 5 -1.5 11t-1 13t-0.5 11q-21 -25 -43.5 -33.5t-59.5 -8.5q-46 0 -62 27.5t-7 64.5q10 46 35 69t75 33l61 12q37 8 43 34q8 37 -29 37q-20 0 -33 -11t-16 -28l-2 -9h-94l2 13q21 99 158 99q80 0 102.5 -25t11.5 -74zM295 478
l12 59q-18 -11 -38 -15q-51 -10 -58 -49q-9 -42 23 -42q19 0 37.5 12t23.5 35z" />
    <glyph glyph-name="guillemotleft" unicode="&#xab;" horiz-adv-x="426" 
d="M269 208l35 162l174 120l-28 -132l-94 -69l65 -69l-28 -132zM96 208l35 162l174 120l-28 -132l-94 -69l65 -69l-28 -132z" />
    <glyph glyph-name="logicalnot" unicode="&#xac;" horiz-adv-x="600" 
d="M450 98l43 202h-382l26 124h506l-69 -326h-124z" />
    <glyph glyph-name="uni00AD" unicode="&#xad;" horiz-adv-x="370" 
d="M118 348h282l-25 -118h-282z" />
    <glyph glyph-name="registered" unicode="&#xae;" horiz-adv-x="800" 
d="M288 157l85 400h156q77 0 109 -32t19 -92q-10 -48 -44 -76.5t-79 -34.5l64 -165h-96l-59 161h-32l-35 -161h-88zM447 487l-22 -99h67q33 0 52.5 10t25.5 40q4 20 -6.5 32t-24.5 14.5t-34 2.5h-58zM105 357q32 154 164 262.5t286 108.5t239 -108.5t53 -262.5
q-33 -154 -164.5 -262.5t-285.5 -108.5t-239.5 108.5t-52.5 262.5zM217 357q-24 -110 34 -187.5t169 -77.5q110 0 200.5 77.5t114.5 187.5t-34 187.5t-169 77.5q-110 0 -200.5 -77.5t-114.5 -187.5z" />
    <glyph glyph-name="macron" unicode="&#xaf;" horiz-adv-x="222" 
d="M116 714h294l-16 -76h-294z" />
    <glyph glyph-name="degree" unicode="&#xb0;" horiz-adv-x="400" 
d="M171 560q13 61 65 104.5t114 43.5q61 0 95.5 -43t21.5 -105q-13 -61 -65 -104.5t-114 -43.5q-61 0 -95.5 43t-21.5 105zM247 560q-6 -30 10.5 -51t46.5 -21t55.5 21t31.5 51q7 30 -10 51t-47 21t-55 -21t-32 -51z" />
    <glyph glyph-name="plusminus" unicode="&#xb1;" horiz-adv-x="600" 
d="M323 398l23 108h124l-23 -108h191l-27 -124h-191l-23 -108h-124l23 108h-191l27 124h191zM47 0l26 124h506l-26 -124h-506z" />
    <glyph glyph-name="twosuperior" unicode="&#xb2;" horiz-adv-x="312" 
d="M372 280h-312q24 116 140 188l58 36q32 21 46.5 39t19.5 42q5 20 -4.5 33.5t-28.5 13.5q-48 0 -66 -73h-106l5 25q27 124 186 124q77 0 108.5 -28.5t21.5 -79.5q-9 -43 -29.5 -72t-64.5 -58l-66 -44q-55 -36 -67 -64h176z" />
    <glyph glyph-name="threesuperior" unicode="&#xb3;" horiz-adv-x="312" 
d="M88 416h106q-5 -29 1 -47q8 -20 34 -20q45 0 56 53q13 63 -46 63h-28l15 70h28q53 0 65 53q4 19 -5 31.5t-27 12.5q-47 0 -58 -60h-100q14 68 57 103q42 33 116 33q75 0 106 -26.5t19 -82.5q-8 -39 -31.5 -63.5t-58.5 -31.5v-2q79 -14 60 -100q-27 -129 -196 -129
q-142 0 -115 133z" />
    <glyph glyph-name="acute" unicode="&#xb4;" horiz-adv-x="222" 
d="M174 601l84 144h138l-128 -144h-94z" />
    <glyph glyph-name="mu" unicode="&#xb5;" horiz-adv-x="500" 
d="M354 181l76 357h138l-114 -538h-132l13 63h-2q-28 -38 -61.5 -57.5t-60.5 -19.5q-18 0 -28 8l-36 -170h-138l151 714h138l-79 -371q-8 -40 2.5 -57.5t41.5 -17.5q73 0 91 89z" />
    <glyph glyph-name="paragraph" unicode="&#xb6;" 
d="M153 -138l100 473q-88 0 -124.5 48t-16.5 138q23 108 82.5 150.5t156.5 42.5h268l-181 -852h-106l161 758h-73l-161 -758h-106z" />
    <glyph glyph-name="periodcentered" unicode="&#xb7;" horiz-adv-x="240" 
d="M83 282q8 40 42.5 68.5t75.5 28.5q40 0 62 -28t14 -69q-9 -41 -43.5 -69t-74.5 -28q-41 0 -63 28.5t-13 68.5z" />
    <glyph glyph-name="cedilla" unicode="&#xb8;" horiz-adv-x="222" 
d="M93 0h54l-51 -61q22 5 34 5q32 0 53.5 -20.5t14.5 -53.5q-9 -44 -47.5 -69t-98.5 -25q-64 0 -96 19l29 46q24 -15 66 -15q21 0 37.5 10t19.5 24q3 15 -7 24.5t-30 9.5q-17 0 -35 -6l-18 20z" />
    <glyph glyph-name="onesuperior" unicode="&#xb9;" horiz-adv-x="312" 
d="M175 280l61 290h-91l15 70h8q96 0 123 68h86l-90 -428h-112z" />
    <glyph glyph-name="ordmasculine" unicode="&#xba;" horiz-adv-x="314" 
d="M126 537q19 88 60 129.5t121 41.5q83 1 105.5 -39.5t3.5 -131.5q-18 -87 -59.5 -128.5t-121.5 -41.5q-83 -1 -105.5 39.5t-3.5 130.5zM226 537q-8 -36 -9.5 -56t5.5 -35t27 -15q24 0 39.5 24.5t27.5 81.5q8 39 8.5 62t-6.5 34t-24 11q-28 0 -42.5 -26.5t-25.5 -80.5z" />
    <glyph glyph-name="guillemotright" unicode="&#xbb;" horiz-adv-x="426" 
d="M71 88l28 132l93 69l-64 69l28 132l124 -120l-35 -162zM244 88l28 132l93 69l-64 69l28 132l124 -120l-35 -162z" />
    <glyph glyph-name="onequarter" unicode="&#xbc;" horiz-adv-x="721" 
d="M605 159l31 145h-2l-117 -145h88zM417 77l20 91l207 260h124l-57 -269h44l-18 -82h-44l-16 -77h-106l16 77h-170zM89 -31l567 756h89l-567 -756h-89zM151 280l61 290h-91l15 70h8q96 0 123 68h86l-90 -428h-112z" />
    <glyph glyph-name="onehalf" unicode="&#xbd;" horiz-adv-x="721" 
d="M65 -31l567 756h89l-567 -756h-89zM151 280l61 290h-91l15 70h8q96 0 123 68h86l-90 -428h-112zM721 0h-312q24 115 141 188l58 36q56 35 66 81q4 20 -5 33.5t-28 13.5q-49 0 -67 -73h-106l6 25q25 124 186 124q77 0 108.5 -28.5t20.5 -79.5q-9 -43 -29.5 -72t-64.5 -58
l-66 -44q-52 -34 -67 -64h176z" />
    <glyph glyph-name="threequarters" unicode="&#xbe;" horiz-adv-x="721" 
d="M417 77l20 91l207 260h124l-57 -269h44l-18 -82h-44l-16 -77h-106l16 77h-170zM517 159h88l31 145h-2zM128 -31l567 756h89l-567 -756h-89zM88 416h106q-5 -29 1 -47q8 -20 34 -20q45 0 56 53q13 63 -46 63h-28l15 70h28q53 0 65 53q4 19 -5 31.5t-27 12.5q-47 0 -58 -60
h-100q14 68 57 103q42 33 116 33q75 0 106 -26.5t19 -82.5q-8 -39 -31.5 -63.5t-58.5 -31.5v-2q79 -14 60 -100q-27 -129 -196 -129q-142 0 -115 133z" />
    <glyph glyph-name="questiondown" unicode="&#xbf;" horiz-adv-x="481" 
d="M323 45h132l-5 -23q-20 -93 -83 -149.5t-159 -56.5q-103 0 -146 51.5t-24 141.5q17 84 96 156l50 45q34 31 49.5 54.5t23.5 60.5l3 15h124l-8 -39q-10 -49 -31.5 -83.5t-63.5 -73.5l-48 -43q-47 -43 -60 -106q-8 -39 4.5 -62t45.5 -23q70 0 94 110zM405 406h-138l28 132
h138z" />
    <glyph glyph-name="Agrave" unicode="&#xc0;" horiz-adv-x="556" 
d="M0 0l341 714h178l37 -714h-150l-1 151h-190l-65 -151h-150zM402 590l-137 -321h140l-1 321h-2zM504 756h-94l-68 144h138z" />
    <glyph glyph-name="Aacute" unicode="&#xc1;" horiz-adv-x="556" 
d="M0 0l341 714h178l37 -714h-150l-1 151h-190l-65 -151h-150zM402 590l-137 -321h140l-1 321h-2zM374 756l84 144h138l-128 -144h-94z" />
    <glyph glyph-name="Acircumflex" unicode="&#xc2;" horiz-adv-x="556" 
d="M0 0l341 714h178l37 -714h-150l-1 151h-190l-65 -151h-150zM402 590l-137 -321h140l-1 321h-2zM289 756l108 144h144l48 -144h-106l-28 85l-66 -85h-100z" />
    <glyph glyph-name="Atilde" unicode="&#xc3;" horiz-adv-x="556" 
d="M0 0l341 714h178l37 -714h-150l-1 151h-190l-65 -151h-150zM402 590l-137 -321h140l-1 321h-2zM354 765h-70q43 124 119 124q27 0 41 -7l44 -21q14 -6 29 -6q13 0 23 12t12 24h72q-17 -55 -49.5 -89.5t-69.5 -34.5q-23 0 -60 17t-52 17q-25 0 -39 -36z" />
    <glyph glyph-name="Adieresis" unicode="&#xc4;" horiz-adv-x="556" 
d="M0 0l341 714h178l37 -714h-150l-1 151h-190l-65 -151h-150zM402 590l-137 -321h140l-1 321h-2zM299 765l25 118h112l-25 -118h-112zM471 765l25 118h112l-25 -118h-112z" />
    <glyph glyph-name="Aring" unicode="&#xc5;" horiz-adv-x="556" 
d="M0 0l341 714h178l37 -714h-150l-1 151h-190l-65 -151h-150zM402 590l-137 -321h140l-1 321h-2zM344 847q10 47 50.5 80.5t87.5 33.5t73.5 -33.5t16.5 -80.5t-50.5 -80.5t-87.5 -33.5t-73.5 33.5t-16.5 80.5zM400 847q-5 -24 8.5 -41t37.5 -17t44.5 17t25.5 41t-8.5 41
t-37.5 17t-44.5 -17t-25.5 -41z" />
    <glyph glyph-name="AE" unicode="&#xc6;" horiz-adv-x="759" 
d="M-5 0l421 714h463l-25 -118h-235l-36 -168h220l-25 -118h-220l-41 -192h245l-25 -118h-383l32 151h-159l-82 -151h-150zM291 269h120l71 333h-9z" />
    <glyph glyph-name="Ccedilla" unicode="&#xc7;" horiz-adv-x="537" 
d="M194 -92l64 78q-49 2 -83 15.5t-53.5 38.5t-28.5 55t-8 74.5t7.5 87t18.5 100.5q15 72 30.5 122.5t40.5 101t57.5 80.5t81.5 48.5t112 18.5q59 0 98 -17.5t56.5 -41.5t22 -62t1.5 -67t-11 -67h-144q17 78 5 113.5t-60 35.5q-53 0 -84 -59.5t-64 -215.5
q-22 -106 -23.5 -162.5t13 -74.5t48.5 -18q44 0 74.5 37t53.5 144h144q-13 -59 -30.5 -104t-46 -86t-72.5 -65.5t-102 -30.5l-40 -48q22 5 34 5q32 0 53.5 -20.5t14.5 -53.5q-9 -44 -47.5 -69t-98.5 -25q-64 0 -96 19l29 46q24 -15 66 -15q21 0 37.5 10t19.5 24
q3 15 -7 24.5t-30 9.5q-17 0 -35 -6z" />
    <glyph glyph-name="Egrave" unicode="&#xc8;" horiz-adv-x="481" 
d="M202 714h399l-25 -118h-255l-36 -168h240l-25 -118h-240l-41 -192h265l-25 -118h-409zM479 756h-94l-68 144h138z" />
    <glyph glyph-name="Eacute" unicode="&#xc9;" horiz-adv-x="481" 
d="M202 714h399l-25 -118h-255l-36 -168h240l-25 -118h-240l-41 -192h265l-25 -118h-409zM349 756l84 144h138l-128 -144h-94z" />
    <glyph glyph-name="Ecircumflex" unicode="&#xca;" horiz-adv-x="481" 
d="M202 714h399l-25 -118h-255l-36 -168h240l-25 -118h-240l-41 -192h265l-25 -118h-409zM264 756l108 144h144l48 -144h-106l-28 85l-66 -85h-100z" />
    <glyph glyph-name="Edieresis" unicode="&#xcb;" horiz-adv-x="481" 
d="M202 714h399l-25 -118h-255l-36 -168h240l-25 -118h-240l-41 -192h265l-25 -118h-409zM274 765l25 118h112l-25 -118h-112zM446 765l25 118h112l-25 -118h-112z" />
    <glyph glyph-name="Igrave" unicode="&#xcc;" horiz-adv-x="258" 
d="M201 0h-144l152 714h144zM355 756h-94l-68 144h138z" />
    <glyph glyph-name="Iacute" unicode="&#xcd;" horiz-adv-x="258" 
d="M201 0h-144l152 714h144zM225 756l84 144h138l-128 -144h-94z" />
    <glyph glyph-name="Icircumflex" unicode="&#xce;" horiz-adv-x="258" 
d="M201 0h-144l152 714h144zM140 756l108 144h144l48 -144h-106l-28 85l-66 -85h-100z" />
    <glyph glyph-name="Idieresis" unicode="&#xcf;" horiz-adv-x="258" 
d="M201 0h-144l152 714h144zM150 765l25 118h112l-25 -118h-112zM322 765l25 118h112l-25 -118h-112z" />
    <glyph glyph-name="Eth" unicode="&#xd0;" horiz-adv-x="574" 
d="M57 0l67 315h-57l22 106h57l63 293h236q96 0 141 -43.5t43.5 -120.5t-22.5 -183q-42 -197 -113 -282t-210 -85h-227zM330 608l-40 -187h93l-22 -106h-93l-44 -209h64q73 0 107.5 53.5t66.5 203.5q12 53 17 88t4.5 67.5t-10 50.5t-29.5 28.5t-53 10.5h-61z" />
    <glyph glyph-name="Ntilde" unicode="&#xd1;" horiz-adv-x="574" 
d="M202 714h166l70 -489h2l104 489h132l-152 -714h-164l-70 500h-2l-106 -500h-132zM363 765h-70q43 124 119 124q27 0 41 -7l44 -21q14 -6 29 -6q13 0 23 12t12 24h72q-17 -55 -49.5 -89.5t-69.5 -34.5q-23 0 -60 17t-52 17q-25 0 -39 -36z" />
    <glyph glyph-name="Ograve" unicode="&#xd2;" horiz-adv-x="556" 
d="M111 357q15 72 30.5 122.5t40.5 101t57.5 80.5t81.5 48.5t112 18.5t104 -18.5t60.5 -48.5t23.5 -80.5t-2.5 -100.5t-21.5 -123q-15 -72 -30.5 -122.5t-40.5 -101t-57.5 -80.5t-81.5 -48.5t-112 -18.5t-104 18.5t-60.5 48.5t-23.5 80.5t2.5 100.5t21.5 123zM255 357
q-16 -77 -22.5 -123t-3 -80.5t20 -48t48.5 -13.5q61 0 92 56.5t63 208.5q33 143 25.5 204t-68.5 61t-92 -57t-63 -208zM504 756h-94l-68 144h138z" />
    <glyph glyph-name="Oacute" unicode="&#xd3;" horiz-adv-x="556" 
d="M111 357q15 72 30.5 122.5t40.5 101t57.5 80.5t81.5 48.5t112 18.5t104 -18.5t60.5 -48.5t23.5 -80.5t-2.5 -100.5t-21.5 -123q-15 -72 -30.5 -122.5t-40.5 -101t-57.5 -80.5t-81.5 -48.5t-112 -18.5t-104 18.5t-60.5 48.5t-23.5 80.5t2.5 100.5t21.5 123zM255 357
q-16 -77 -22.5 -123t-3 -80.5t20 -48t48.5 -13.5q61 0 92 56.5t63 208.5q33 143 25.5 204t-68.5 61t-92 -57t-63 -208zM374 756l84 144h138l-128 -144h-94z" />
    <glyph glyph-name="Ocircumflex" unicode="&#xd4;" horiz-adv-x="556" 
d="M111 357q15 72 30.5 122.5t40.5 101t57.5 80.5t81.5 48.5t112 18.5t104 -18.5t60.5 -48.5t23.5 -80.5t-2.5 -100.5t-21.5 -123q-15 -72 -30.5 -122.5t-40.5 -101t-57.5 -80.5t-81.5 -48.5t-112 -18.5t-104 18.5t-60.5 48.5t-23.5 80.5t2.5 100.5t21.5 123zM255 357
q-16 -77 -22.5 -123t-3 -80.5t20 -48t48.5 -13.5q61 0 92 56.5t63 208.5q33 143 25.5 204t-68.5 61t-92 -57t-63 -208zM289 756l108 144h144l48 -144h-106l-28 85l-66 -85h-100z" />
    <glyph glyph-name="Otilde" unicode="&#xd5;" horiz-adv-x="556" 
d="M111 357q15 72 30.5 122.5t40.5 101t57.5 80.5t81.5 48.5t112 18.5t104 -18.5t60.5 -48.5t23.5 -80.5t-2.5 -100.5t-21.5 -123q-15 -72 -30.5 -122.5t-40.5 -101t-57.5 -80.5t-81.5 -48.5t-112 -18.5t-104 18.5t-60.5 48.5t-23.5 80.5t2.5 100.5t21.5 123zM255 357
q-16 -77 -22.5 -123t-3 -80.5t20 -48t48.5 -13.5q61 0 92 56.5t63 208.5q33 143 25.5 204t-68.5 61t-92 -57t-63 -208zM354 765h-70q43 124 119 124q27 0 41 -7l44 -21q14 -6 29 -6q13 0 23 12t12 24h72q-17 -55 -49.5 -89.5t-69.5 -34.5q-23 0 -60 17t-52 17q-25 0 -39 -36
z" />
    <glyph glyph-name="Odieresis" unicode="&#xd6;" horiz-adv-x="556" 
d="M111 357q15 72 30.5 122.5t40.5 101t57.5 80.5t81.5 48.5t112 18.5t104 -18.5t60.5 -48.5t23.5 -80.5t-2.5 -100.5t-21.5 -123q-15 -72 -30.5 -122.5t-40.5 -101t-57.5 -80.5t-81.5 -48.5t-112 -18.5t-104 18.5t-60.5 48.5t-23.5 80.5t2.5 100.5t21.5 123zM255 357
q-16 -77 -22.5 -123t-3 -80.5t20 -48t48.5 -13.5q61 0 92 56.5t63 208.5q33 143 25.5 204t-68.5 61t-92 -57t-63 -208zM299 765l25 118h112l-25 -118h-112zM471 765l25 118h112l-25 -118h-112z" />
    <glyph glyph-name="multiply" unicode="&#xd7;" horiz-adv-x="600" 
d="M80 98l189 155l-123 155l104 86l122 -156l188 156l68 -86l-189 -155l123 -155l-104 -86l-122 156l-188 -156z" />
    <glyph glyph-name="Oslash" unicode="&#xd8;" horiz-adv-x="556" 
d="M231 209l242 377q-14 36 -63 36q-61 0 -92 -57t-63 -208q-23 -109 -26 -148h2zM476 505l-241 -376q13 -37 63 -37q61 0 92 56.5t63 208.5q21 99 25 148h-2zM77 -30l45 70q-26 30 -33 80.5t-1 104t23 132.5q15 72 30.5 122.5t40.5 101t57.5 80.5t81.5 48.5t112 18.5
q73 0 116 -24l39 61l43 -21l-45 -70q26 -30 33 -80.5t1 -104t-23 -132.5q-15 -72 -30.5 -122.5t-40.5 -101t-57.5 -80.5t-81.5 -48.5t-112 -18.5q-74 0 -116 24l-39 -61z" />
    <glyph glyph-name="Ugrave" unicode="&#xd9;" horiz-adv-x="538" 
d="M193 714h144l-106 -498q-15 -53 -2 -88.5t60 -35.5t72.5 32.5t37.5 91.5l106 498h144l-106 -498q-49 -230 -277 -230q-31 0 -56.5 4t-51 13.5t-41.5 26t-28 42t-11 61t9 83.5zM495 756h-94l-68 144h138z" />
    <glyph glyph-name="Uacute" unicode="&#xda;" horiz-adv-x="538" 
d="M193 714h144l-106 -498q-15 -53 -2 -88.5t60 -35.5t72.5 32.5t37.5 91.5l106 498h144l-106 -498q-49 -230 -277 -230q-31 0 -56.5 4t-51 13.5t-41.5 26t-28 42t-11 61t9 83.5zM365 756l84 144h138l-128 -144h-94z" />
    <glyph glyph-name="Ucircumflex" unicode="&#xdb;" horiz-adv-x="538" 
d="M193 714h144l-106 -498q-15 -53 -2 -88.5t60 -35.5t72.5 32.5t37.5 91.5l106 498h144l-106 -498q-49 -230 -277 -230q-31 0 -56.5 4t-51 13.5t-41.5 26t-28 42t-11 61t9 83.5zM280 756l108 144h144l48 -144h-106l-28 85l-66 -85h-100z" />
    <glyph glyph-name="Udieresis" unicode="&#xdc;" horiz-adv-x="538" 
d="M193 714h144l-106 -498q-15 -53 -2 -88.5t60 -35.5t72.5 32.5t37.5 91.5l106 498h144l-106 -498q-49 -230 -277 -230q-31 0 -56.5 4t-51 13.5t-41.5 26t-28 42t-11 61t9 83.5zM290 765l25 118h112l-25 -118h-112zM462 765l25 118h112l-25 -118h-112z" />
    <glyph glyph-name="Yacute" unicode="&#xdd;" horiz-adv-x="520" 
d="M155 714h162l35 -276h2l159 276h156l-277 -433l-60 -281h-144l60 281zM356 756l84 144h138l-128 -144h-94z" />
    <glyph glyph-name="Thorn" unicode="&#xde;" horiz-adv-x="519" 
d="M50 0l152 714h144l-27 -128h108q101 0 135 -61.5t15 -152.5q-23 -107 -95 -161t-178 -54h-77l-33 -157h-144zM296 480l-46 -217h64q44 0 75.5 27t43.5 80q24 110 -77 110h-60z" />
    <glyph glyph-name="germandbls" unicode="&#xdf;" horiz-adv-x="500" 
d="M179 0h-138l112 527q22 104 84.5 152.5t170.5 48.5q95 0 136.5 -44t23.5 -127q-12 -58 -38 -91.5t-82 -55.5v-2q107 -18 70 -192q-48 -222 -226 -222q-46 0 -65 4l20 94q10 -4 20 -4q51 0 76 35.5t41 110.5q25 121 -55 121h-25l20 94h17q66 0 87 95q19 90 -47 90
q-38 0 -58.5 -28t-32.5 -82z" />
    <glyph glyph-name="agrave" unicode="&#xe0;" horiz-adv-x="481" 
d="M248 373h-124l3 13q18 87 78.5 126.5t145.5 39.5q114 0 146 -41.5t14 -123.5l-60 -283q-14 -64 -5 -104h-132q-5 17 -5 56h-2q-32 -40 -66 -55t-86 -15q-66 0 -88.5 46t-8.5 108q15 74 54.5 111t116.5 57l83 21q32 8 47.5 22t20.5 41q14 66 -50 66q-31 0 -51.5 -19
t-27.5 -51zM332 163l22 106q-30 -19 -65 -27q-43 -9 -65.5 -30t-30.5 -57q-16 -75 36 -75q32 0 63 21t40 62zM434 601h-94l-68 144h138z" />
    <glyph glyph-name="aacute" unicode="&#xe1;" horiz-adv-x="481" 
d="M248 373h-124l3 13q18 87 78.5 126.5t145.5 39.5q114 0 146 -41.5t14 -123.5l-60 -283q-14 -64 -5 -104h-132q-5 17 -5 56h-2q-32 -40 -66 -55t-86 -15q-66 0 -88.5 46t-8.5 108q15 74 54.5 111t116.5 57l83 21q32 8 47.5 22t20.5 41q14 66 -50 66q-31 0 -51.5 -19
t-27.5 -51zM332 163l22 106q-30 -19 -65 -27q-43 -9 -65.5 -30t-30.5 -57q-16 -75 36 -75q32 0 63 21t40 62zM304 601l84 144h138l-128 -144h-94z" />
    <glyph glyph-name="acircumflex" unicode="&#xe2;" horiz-adv-x="481" 
d="M248 373h-124l3 13q18 87 78.5 126.5t145.5 39.5q114 0 146 -41.5t14 -123.5l-60 -283q-14 -64 -5 -104h-132q-5 17 -5 56h-2q-32 -40 -66 -55t-86 -15q-66 0 -88.5 46t-8.5 108q15 74 54.5 111t116.5 57l83 21q32 8 47.5 22t20.5 41q14 66 -50 66q-31 0 -51.5 -19
t-27.5 -51zM332 163l22 106q-30 -19 -65 -27q-43 -9 -65.5 -30t-30.5 -57q-16 -75 36 -75q32 0 63 21t40 62zM219 601l108 144h144l48 -144h-106l-28 85l-66 -85h-100z" />
    <glyph glyph-name="atilde" unicode="&#xe3;" horiz-adv-x="481" 
d="M248 373h-124l3 13q18 87 78.5 126.5t145.5 39.5q114 0 146 -41.5t14 -123.5l-60 -283q-14 -64 -5 -104h-132q-5 17 -5 56h-2q-32 -40 -66 -55t-86 -15q-66 0 -88.5 46t-8.5 108q15 74 54.5 111t116.5 57l83 21q32 8 47.5 22t20.5 41q14 66 -50 66q-31 0 -51.5 -19
t-27.5 -51zM332 163l22 106q-30 -19 -65 -27q-43 -9 -65.5 -30t-30.5 -57q-16 -75 36 -75q32 0 63 21t40 62zM284 610h-70q43 124 119 124q27 0 42 -7l43 -21q13 -6 29 -6q13 0 23 12t12 24h72q-17 -55 -49.5 -89.5t-69.5 -34.5q-23 0 -60 17t-52 17q-25 0 -39 -36z" />
    <glyph glyph-name="adieresis" unicode="&#xe4;" horiz-adv-x="481" 
d="M248 373h-124l3 13q18 87 78.5 126.5t145.5 39.5q114 0 146 -41.5t14 -123.5l-60 -283q-14 -64 -5 -104h-132q-5 17 -5 56h-2q-32 -40 -66 -55t-86 -15q-66 0 -88.5 46t-8.5 108q15 74 54.5 111t116.5 57l83 21q32 8 47.5 22t20.5 41q14 66 -50 66q-31 0 -51.5 -19
t-27.5 -51zM332 163l22 106q-30 -19 -65 -27q-43 -9 -65.5 -30t-30.5 -57q-16 -75 36 -75q32 0 63 21t40 62zM229 610l25 118h112l-25 -118h-112zM401 610l25 118h112l-25 -118h-112z" />
    <glyph glyph-name="aring" unicode="&#xe5;" horiz-adv-x="481" 
d="M248 373h-124l3 13q18 87 78.5 126.5t145.5 39.5q114 0 146 -41.5t14 -123.5l-60 -283q-14 -64 -5 -104h-132q-5 17 -5 56h-2q-32 -40 -66 -55t-86 -15q-66 0 -88.5 46t-8.5 108q15 74 54.5 111t116.5 57l83 21q32 8 47.5 22t20.5 41q14 66 -50 66q-31 0 -51.5 -19
t-27.5 -51zM332 163l22 106q-30 -19 -65 -27q-43 -9 -65.5 -30t-30.5 -57q-16 -75 36 -75q32 0 63 21t40 62zM275 698q11 47 51.5 80.5t87.5 33.5t73 -33.5t16 -80.5t-50.5 -80.5t-87.5 -33.5t-73.5 33.5t-16.5 80.5zM331 698q-5 -24 8.5 -41t37.5 -17t45 17t25 41
q5 24 -8 41t-37 17t-45 -17t-26 -41z" />
    <glyph glyph-name="ae" unicode="&#xe6;" horiz-adv-x="722" 
d="M331 163l22 106q-30 -19 -65 -27q-43 -9 -65.5 -30t-30.5 -57q-16 -75 36 -75q32 0 63 21t40 62zM494 330h139q14 62 5.5 95t-47.5 33q-37 0 -60 -31.5t-32 -75.5zM247 373h-124l3 13q18 87 78.5 126.5t145.5 39.5q55 0 83.5 -14t42.5 -50q44 64 140 64q77 0 114.5 -34
t38.5 -95t-15 -144l-6 -31h-271l-9 -43q-13 -47 -4 -86t44 -39q33 0 54.5 24.5t38.5 76.5h124q-48 -195 -235 -195q-124 0 -142 93q-43 -57 -84 -75t-110 -18q-66 0 -88.5 46t-8.5 108q15 74 54.5 111t116.5 57l83 21q32 8 47.5 22t20.5 41q14 66 -50 66q-31 0 -51.5 -19
t-27.5 -51z" />
    <glyph glyph-name="ccedilla" unicode="&#xe7;" horiz-adv-x="463" 
d="M151 -92l64 78q-99 4 -131.5 67.5t-0.5 215.5q33 156 103.5 219.5t174.5 63.5q94 0 132 -55.5t17 -152.5h-132q23 108 -39 108q-48 0 -72.5 -42t-45.5 -142q-15 -71 -17.5 -109t9 -58.5t42.5 -20.5q34 0 57 30.5t37 95.5h132q-42 -198 -211 -218l-41 -49q22 5 34 5
q32 0 53.5 -20.5t14.5 -53.5q-9 -44 -47.5 -69t-98.5 -25q-64 0 -96 19l29 46q24 -15 66 -15q21 0 37.5 10t19.5 24q3 15 -7 24.5t-30 9.5q-17 0 -35 -6z" />
    <glyph glyph-name="egrave" unicode="&#xe8;" horiz-adv-x="463" 
d="M490 248h-273l-9 -43q-13 -47 -4 -86t45 -39q33 0 55 24.5t39 76.5h124q-48 -195 -236 -195q-42 0 -72.5 9.5t-49 23.5t-29 38.5t-13.5 46.5t-0.5 55t6.5 56.5t11 58.5q13 61 30 105.5t47.5 86.5t79.5 64t116 22q78 0 115.5 -34t38.5 -95t-15 -144zM234 330h141
q14 62 5.5 95t-48.5 33q-38 0 -61 -31.5t-32 -75.5zM425 601h-94l-68 144h138z" />
    <glyph glyph-name="eacute" unicode="&#xe9;" horiz-adv-x="463" 
d="M490 248h-273l-9 -43q-13 -47 -4 -86t45 -39q33 0 55 24.5t39 76.5h124q-48 -195 -236 -195q-42 0 -72.5 9.5t-49 23.5t-29 38.5t-13.5 46.5t-0.5 55t6.5 56.5t11 58.5q13 61 30 105.5t47.5 86.5t79.5 64t116 22q78 0 115.5 -34t38.5 -95t-15 -144zM234 330h141
q14 62 5.5 95t-48.5 33q-38 0 -61 -31.5t-32 -75.5zM295 601l84 144h138l-128 -144h-94z" />
    <glyph glyph-name="ecircumflex" unicode="&#xea;" horiz-adv-x="463" 
d="M490 248h-273l-9 -43q-13 -47 -4 -86t45 -39q33 0 55 24.5t39 76.5h124q-48 -195 -236 -195q-42 0 -72.5 9.5t-49 23.5t-29 38.5t-13.5 46.5t-0.5 55t6.5 56.5t11 58.5q13 61 30 105.5t47.5 86.5t79.5 64t116 22q78 0 115.5 -34t38.5 -95t-15 -144zM234 330h141
q14 62 5.5 95t-48.5 33q-38 0 -61 -31.5t-32 -75.5zM210 601l108 144h144l48 -144h-106l-28 85l-66 -85h-100z" />
    <glyph glyph-name="edieresis" unicode="&#xeb;" horiz-adv-x="463" 
d="M490 248h-273l-9 -43q-13 -47 -4 -86t45 -39q33 0 55 24.5t39 76.5h124q-48 -195 -236 -195q-42 0 -72.5 9.5t-49 23.5t-29 38.5t-13.5 46.5t-0.5 55t6.5 56.5t11 58.5q13 61 30 105.5t47.5 86.5t79.5 64t116 22q78 0 115.5 -34t38.5 -95t-15 -144zM234 330h141
q14 62 5.5 95t-48.5 33q-38 0 -61 -31.5t-32 -75.5zM220 610l25 118h112l-25 -118h-112zM392 610l25 118h112l-25 -118h-112z" />
    <glyph glyph-name="igrave" unicode="&#xec;" horiz-adv-x="240" 
d="M51 0l114 538h138l-114 -538h-138zM313 601h-94l-68 144h138z" />
    <glyph glyph-name="iacute" unicode="&#xed;" horiz-adv-x="240" 
d="M51 0l114 538h138l-114 -538h-138zM183 601l84 144h138l-128 -144h-94z" />
    <glyph glyph-name="icircumflex" unicode="&#xee;" horiz-adv-x="240" 
d="M51 0l114 538h138l-114 -538h-138zM98 601l108 144h144l48 -144h-106l-28 85l-66 -85h-100z" />
    <glyph glyph-name="idieresis" unicode="&#xef;" horiz-adv-x="240" 
d="M51 0l114 538h138l-114 -538h-138zM108 610l25 118h112l-25 -118h-112zM280 610l25 118h112l-25 -118h-112z" />
    <glyph glyph-name="eth" unicode="&#xf0;" 
d="M222 262q-10 -46 -14 -74.5t-2.5 -55.5t14 -39.5t37.5 -12.5q41 0 66.5 41.5t46.5 140.5q20 92 12 134t-49 42q-25 0 -43 -12.5t-30.5 -39t-20.5 -53.5t-17 -71zM229 583l-30 42l85 45q-24 31 -52 64l117 61q20 -21 54 -63l84 45l34 -42l-86 -45q64 -91 82 -185.5
t-8 -235.5q-30 -143 -93.5 -213t-178.5 -70q-82 -1 -122.5 30.5t-45 95t15.5 157.5q27 124 84.5 193.5t145.5 69.5q38 0 65 -26l2 2q-22 53 -67 120z" />
    <glyph glyph-name="ntilde" unicode="&#xf1;" horiz-adv-x="500" 
d="M46 0l114 538h132l-13 -63h2q58 77 153 77q137 0 105 -153l-85 -399h-138l79 371q8 40 -2 57.5t-41 17.5q-73 0 -92 -89l-76 -357h-138zM293 610h-70q43 124 119 124q27 0 42 -7l43 -21q13 -6 29 -6q13 0 23 12t12 24h72q-17 -55 -49.5 -89.5t-69.5 -34.5q-23 0 -60 17
t-52 17q-25 0 -39 -36z" />
    <glyph glyph-name="ograve" unicode="&#xf2;" 
d="M85 269q30 143 93.5 213t178.5 70q82 1 122.5 -30.5t45 -95t-15.5 -157.5q-30 -143 -93.5 -213t-178.5 -70q-82 -1 -122.5 30.5t-45 95t15.5 157.5zM223 269q-10 -48 -14 -77t-3 -57.5t13.5 -41.5t37.5 -13q41 0 67 43.5t47 145.5q15 68 16.5 109t-10.5 60.5t-40 19.5
q-46 0 -69.5 -45.5t-44.5 -143.5zM433 601h-94l-68 144h138z" />
    <glyph glyph-name="oacute" unicode="&#xf3;" 
d="M85 269q30 143 93.5 213t178.5 70q82 1 122.5 -30.5t45 -95t-15.5 -157.5q-30 -143 -93.5 -213t-178.5 -70q-82 -1 -122.5 30.5t-45 95t15.5 157.5zM223 269q-10 -48 -14 -77t-3 -57.5t13.5 -41.5t37.5 -13q41 0 67 43.5t47 145.5q15 68 16.5 109t-10.5 60.5t-40 19.5
q-46 0 -69.5 -45.5t-44.5 -143.5zM303 601l84 144h138l-128 -144h-94z" />
    <glyph glyph-name="ocircumflex" unicode="&#xf4;" 
d="M85 269q30 143 93.5 213t178.5 70q82 1 122.5 -30.5t45 -95t-15.5 -157.5q-30 -143 -93.5 -213t-178.5 -70q-82 -1 -122.5 30.5t-45 95t15.5 157.5zM223 269q-10 -48 -14 -77t-3 -57.5t13.5 -41.5t37.5 -13q41 0 67 43.5t47 145.5q15 68 16.5 109t-10.5 60.5t-40 19.5
q-46 0 -69.5 -45.5t-44.5 -143.5zM218 601l108 144h144l48 -144h-106l-28 85l-66 -85h-100z" />
    <glyph glyph-name="otilde" unicode="&#xf5;" 
d="M85 269q30 143 93.5 213t178.5 70q82 1 122.5 -30.5t45 -95t-15.5 -157.5q-30 -143 -93.5 -213t-178.5 -70q-82 -1 -122.5 30.5t-45 95t15.5 157.5zM223 269q-10 -48 -14 -77t-3 -57.5t13.5 -41.5t37.5 -13q41 0 67 43.5t47 145.5q15 68 16.5 109t-10.5 60.5t-40 19.5
q-46 0 -69.5 -45.5t-44.5 -143.5zM283 610h-70q43 124 119 124q27 0 42 -7l43 -21q13 -6 29 -6q13 0 23 12t12 24h72q-17 -55 -49.5 -89.5t-69.5 -34.5q-23 0 -60 17t-52 17q-25 0 -39 -36z" />
    <glyph glyph-name="odieresis" unicode="&#xf6;" 
d="M85 269q30 143 93.5 213t178.5 70q82 1 122.5 -30.5t45 -95t-15.5 -157.5q-30 -143 -93.5 -213t-178.5 -70q-82 -1 -122.5 30.5t-45 95t15.5 157.5zM223 269q-10 -48 -14 -77t-3 -57.5t13.5 -41.5t37.5 -13q41 0 67 43.5t47 145.5q15 68 16.5 109t-10.5 60.5t-40 19.5
q-46 0 -69.5 -45.5t-44.5 -143.5zM228 610l25 118h112l-25 -118h-112zM400 610l25 118h112l-25 -118h-112z" />
    <glyph glyph-name="divide" unicode="&#xf7;" horiz-adv-x="600" 
d="M88 191l26 124h506l-26 -124h-506zM302 465q8 40 42 68.5t75 28.5q40 0 62.5 -28t14.5 -69q-9 -41 -43.5 -69t-74.5 -28q-41 0 -63 28.5t-13 68.5zM212 41q8 40 42 68.5t75 28.5q40 0 62.5 -28t14.5 -69q-9 -41 -43.5 -69t-74.5 -28q-41 0 -63 28.5t-13 68.5z" />
    <glyph glyph-name="oslash" unicode="&#xf8;" 
d="M210 186l173 238q-9 34 -46 34q-46 0 -69.5 -45.5t-44.5 -143.5q-13 -67 -15 -83h2zM385 351l-175 -238q9 -33 47 -33q41 0 67 43.5t47 145.5q8 39 16 82h-2zM46 -35l51 70q-48 60 -12 234q30 143 93.5 213t178.5 70q68 1 105 -21l48 65l39 -23l-52 -70q50 -62 12 -234
q-30 -143 -93.5 -213t-178.5 -70q-69 -2 -105 21l-47 -65z" />
    <glyph glyph-name="ugrave" unicode="&#xf9;" horiz-adv-x="500" 
d="M322 0l13 63h-2q-58 -77 -153 -77q-137 0 -104 153l84 399h138l-79 -371q-8 -40 2.5 -57.5t41.5 -17.5q73 0 91 89l76 357h138l-114 -538h-132zM443 601h-94l-68 144h138z" />
    <glyph glyph-name="uacute" unicode="&#xfa;" horiz-adv-x="500" 
d="M322 0l13 63h-2q-58 -77 -153 -77q-137 0 -104 153l84 399h138l-79 -371q-8 -40 2.5 -57.5t41.5 -17.5q73 0 91 89l76 357h138l-114 -538h-132zM313 601l84 144h138l-128 -144h-94z" />
    <glyph glyph-name="ucircumflex" unicode="&#xfb;" horiz-adv-x="500" 
d="M322 0l13 63h-2q-58 -77 -153 -77q-137 0 -104 153l84 399h138l-79 -371q-8 -40 2.5 -57.5t41.5 -17.5q73 0 91 89l76 357h138l-114 -538h-132zM228 601l108 144h144l48 -144h-106l-28 85l-66 -85h-100z" />
    <glyph glyph-name="udieresis" unicode="&#xfc;" horiz-adv-x="500" 
d="M322 0l13 63h-2q-58 -77 -153 -77q-137 0 -104 153l84 399h138l-79 -371q-8 -40 2.5 -57.5t41.5 -17.5q73 0 91 89l76 357h138l-114 -538h-132zM238 610l25 118h112l-25 -118h-112zM410 610l25 118h112l-25 -118h-112z" />
    <glyph glyph-name="yacute" unicode="&#xfd;" horiz-adv-x="444" 
d="M9 -176l21 103q18 -3 36 -3q68 0 90 76l-37 538h144l1 -372h2l149 372h138l-236 -502q-46 -96 -78 -139t-69 -58t-105 -15h-56zM285 601l84 144h138l-128 -144h-94z" />
    <glyph glyph-name="thorn" unicode="&#xfe;" horiz-adv-x="500" 
d="M241 269q-13 -63 -15.5 -99t9.5 -57t42 -21q43 0 66 41t43 136q21 88 15 132.5t-49 44.5t-67 -41.5t-44 -135.5zM9 -176l189 890h138l-50 -233h2q50 71 131 71q86 0 111 -66.5t-6 -216.5q-31 -149 -85 -216t-140 -67q-74 0 -102 64h-2l-48 -226h-138z" />
    <glyph glyph-name="ydieresis" unicode="&#xff;" horiz-adv-x="444" 
d="M9 -176l21 103q18 -3 36 -3q68 0 90 76l-37 538h144l1 -372h2l149 372h138l-236 -502q-46 -96 -78 -139t-69 -58t-105 -15h-56zM210 610l25 118h112l-25 -118h-112zM382 610l25 118h112l-25 -118h-112z" />
    <glyph glyph-name="dotlessi" unicode="&#x131;" horiz-adv-x="240" 
d="M51 0l114 538h138l-114 -538h-138z" />
    <glyph glyph-name="Lslash" unicode="&#x141;" horiz-adv-x="463" 
d="M50 0l54 256l-56 -31l22 106l57 31l75 352h144l-56 -262l143 79l-23 -106l-142 -79l-49 -228h255l-25 -118h-399z" />
    <glyph glyph-name="lslash" unicode="&#x142;" horiz-adv-x="240" 
d="M51 0l60 282l-72 -42l19 88l72 42l73 344h138l-54 -253l72 41l-19 -88l-72 -41l-79 -373h-138z" />
    <glyph glyph-name="OE" unicode="&#x152;" horiz-adv-x="778" 
d="M900 714l-25 -118h-242l-36 -168h227l-25 -118h-227l-41 -192h250l-25 -118h-373l9 41h-2q-17 -25 -56.5 -40t-78.5 -15q-44 0 -76 11.5t-51 30t-29.5 48.5t-13 59.5t1.5 71.5t10 76.5t16 81.5q13 61 27.5 109t38.5 98t54 82.5t74.5 53t98.5 20.5q98 0 119 -52h2l8 38
h365zM255 357q-34 -143 -26.5 -204t69.5 -61q60 0 85.5 51t60.5 214q12 57 18.5 90t10.5 67t2 51.5t-9 32t-20.5 19.5t-35.5 5q-62 0 -92.5 -56.5t-62.5 -208.5z" />
    <glyph glyph-name="oe" unicode="&#x153;" horiz-adv-x="741" 
d="M765 248h-273l-9 -43q-13 -47 -4 -86t45 -39q33 0 55 24.5t39 76.5h124q-48 -195 -228 -195q-58 0 -88 22.5t-35 56.5q-22 -37 -67 -58t-98 -21q-111 0 -142.5 71.5t2.5 211.5q30 143 93.5 213t178.5 70q55 0 85 -18t42 -57q58 75 147 75q78 0 115.5 -34t38.5 -95
t-15 -144zM260 80q40 0 65.5 43.5t46.5 145.5q15 68 16.5 109t-10.5 60.5t-40 19.5q-46 0 -69.5 -45.5t-44.5 -143.5q-10 -48 -14 -77t-3 -57.5t14.5 -41.5t38.5 -13zM509 330h141q14 62 5.5 95t-48.5 33q-38 0 -61 -31.5t-32 -75.5z" />
    <glyph glyph-name="Scaron" unicode="&#x160;" horiz-adv-x="519" 
d="M69 223h144l-4 -21q-11 -55 3.5 -82.5t68.5 -27.5q36 0 66 23t38 65q10 47 -12 71.5t-90 50.5q-92 34 -125.5 82t-15.5 134q22 103 92 156.5t174 53.5q102 0 151.5 -47t28.5 -145l-4 -20h-138q22 106 -56 106q-83 0 -99 -83q-8 -35 2.5 -56.5t50.5 -40.5l101 -48
q71 -34 90.5 -77t5.5 -112q-48 -219 -295 -219q-119 0 -162 53t-21 155zM349 756l-48 144h106l28 -85l66 85h100l-108 -144h-144z" />
    <glyph glyph-name="scaron" unicode="&#x161;" horiz-adv-x="444" 
d="M60 176h124l-3 -18q-8 -36 6 -57t49 -21q69 0 84 64q8 42 -37 61l-90 35q-106 41 -83 150q15 72 73 117t159 45q92 0 129.5 -39.5t22.5 -113.5l-5 -22h-124q9 41 -1 61q-9 20 -43 20q-28 0 -49.5 -15.5t-27.5 -42.5q-10 -43 47 -63l77 -28q60 -22 79.5 -57.5t6.5 -96.5
q-17 -82 -81.5 -125.5t-154.5 -43.5q-110 0 -145 43.5t-17 127.5zM278 601l-48 144h106l28 -85l66 85h100l-108 -144h-144z" />
    <glyph glyph-name="Ydieresis" unicode="&#x178;" horiz-adv-x="520" 
d="M155 714h162l35 -276h2l159 276h156l-277 -433l-60 -281h-144l60 281zM281 765l25 118h112l-25 -118h-112zM453 765l25 118h112l-25 -118h-112z" />
    <glyph glyph-name="Zcaron" unicode="&#x17d;" horiz-adv-x="481" 
d="M24 0l22 105l368 491h-245l25 118h411l-23 -109l-371 -487h271l-25 -118h-433zM330 756l-48 144h106l28 -85l66 85h100l-108 -144h-144z" />
    <glyph glyph-name="zcaron" unicode="&#x17e;" horiz-adv-x="426" 
d="M24 0l23 106l283 320h-205l23 112h368l-22 -106l-283 -320h215l-24 -112h-378zM269 601l-48 144h106l28 -85l66 85h100l-108 -144h-144z" />
    <glyph glyph-name="florin" unicode="&#x192;" 
d="M138 346l33 82h105l36 89q44 108 96.5 152.5t143.5 44.5q41 0 74 -3l-39 -94q-9 3 -27 3q-47 0 -69 -23t-53 -96l-30 -73h110l-32 -82h-111l-138 -342q-37 -93 -88 -136.5t-149 -43.5q-53 0 -71 7l39 91q16 -4 35 -4q42 0 62 20.5t43 77.5l135 330h-105z" />
    <glyph glyph-name="circumflex" unicode="&#x2c6;" horiz-adv-x="222" 
d="M89 601l108 144h144l48 -144h-106l-28 85l-66 -85h-100z" />
    <glyph glyph-name="caron" unicode="&#x2c7;" horiz-adv-x="222" 
d="M167 601l-48 144h106l28 -85l66 85h100l-108 -144h-144z" />
    <glyph glyph-name="uni02C9" unicode="&#x2c9;" horiz-adv-x="222" 
d="M116 714h294l-16 -76h-294z" />
    <glyph glyph-name="breve" unicode="&#x2d8;" horiz-adv-x="222" 
d="M130 745h65q-3 -28 14.5 -46.5t46.5 -18.5t53.5 18.5t33.5 46.5h65q-12 -52 -54.5 -96.5t-114.5 -44.5q-38 0 -64 14.5t-35 36t-12.5 46t2.5 44.5z" />
    <glyph glyph-name="dotaccent" unicode="&#x2d9;" horiz-adv-x="222" 
d="M210 728h112l-25 -118h-112z" />
    <glyph glyph-name="ring" unicode="&#x2da;" horiz-adv-x="222" 
d="M145 698q11 47 51.5 80.5t87.5 33.5t73 -33.5t16 -80.5t-50.5 -80.5t-87.5 -33.5t-73.5 33.5t-16.5 80.5zM201 698q-5 -24 8.5 -41t37.5 -17t45 17t25 41q5 24 -8 41t-37 17t-45 -17t-26 -41z" />
    <glyph glyph-name="ogonek" unicode="&#x2db;" horiz-adv-x="222" 
d="M179 -144l7 -57q-48 -23 -114 -23q-50 0 -67.5 24.5t-9.5 61.5q19 92 152 138h67q-70 -44 -96 -69.5t-32 -50.5q-3 -17 5 -28.5t26 -11.5q30 0 62 16z" />
    <glyph glyph-name="tilde" unicode="&#x2dc;" horiz-adv-x="222" 
d="M154 610h-70q43 124 119 124q27 0 42 -7l43 -21q14 -6 29 -6q13 0 23 12t12 24h72q-17 -55 -49.5 -89.5t-69.5 -34.5q-23 0 -60 17t-52 17q-25 0 -39 -36z" />
    <glyph glyph-name="hungarumlaut" unicode="&#x2dd;" horiz-adv-x="222" 
d="M91 601l84 144h138l-128 -144h-94zM257 601l84 144h138l-128 -144h-94z" />
    <glyph glyph-name="uni03A9" unicode="&#x3a9;" horiz-adv-x="599" 
d="M165 101l1 3q-76 119 -42 283q28 134 120.5 227t207.5 93q61 0 104.5 -29t62.5 -74t25.5 -100t-7.5 -108q-19 -88 -65 -166t-99 -126l-1 -3h115l-21 -101h-225l16 73q46 32 88.5 107.5t66.5 186.5q23 92 2 163t-86 71q-64 0 -115.5 -66.5t-73.5 -172.5
q-21 -112 -10.5 -185.5t43.5 -103.5l-16 -73h-226l21 101h114z" />
    <glyph glyph-name="uni03BC" unicode="&#x3bc;" horiz-adv-x="500" 
d="M354 181l76 357h138l-114 -538h-132l13 63h-2q-28 -38 -61.5 -57.5t-60.5 -19.5q-18 0 -28 8l-36 -170h-138l151 714h138l-79 -371q-8 -40 2.5 -57.5t41.5 -17.5q73 0 91 89z" />
    <glyph glyph-name="pi" unicode="&#x3c0;" horiz-adv-x="529" 
d="M597 417h-60l-59 -278q-18 -83 -18 -139h-114q-9 33 13 136l60 281h-114q-23 -91 -65 -215t-81 -202h-113q41 89 82.5 211.5t60.5 205.5q-50 0 -84 -9l4 83q50 33 153 33h365z" />
    <glyph glyph-name="endash" unicode="&#x2013;" horiz-adv-x="500" 
d="M50 233l23 112h500l-23 -112h-500z" />
    <glyph glyph-name="emdash" unicode="&#x2014;" horiz-adv-x="1000" 
d="M50 233l23 112h1000l-23 -112h-1000z" />
    <glyph glyph-name="quoteleft" unicode="&#x2018;" horiz-adv-x="260" 
d="M148 393l27 130q19 88 57.5 136t115.5 55l-15 -70q-26 -4 -44.5 -26.5t-24.5 -52.5l-3 -16h52l-33 -156h-132z" />
    <glyph glyph-name="quoteright" unicode="&#x2019;" horiz-adv-x="260" 
d="M348 714l-28 -130q-18 -88 -56.5 -136t-115.5 -55l14 70q26 4 44.5 26.5t24.5 52.5l4 16h-52l33 156h132z" />
    <glyph glyph-name="quotesinglbase" unicode="&#x201a;" horiz-adv-x="260" 
d="M97 156h132l-27 -130q-19 -88 -57.5 -136t-115.5 -55l15 70q26 4 44.5 26.5t24.5 52.5l3 16h-52z" />
    <glyph glyph-name="quotedblleft" unicode="&#x201c;" horiz-adv-x="463" 
d="M347 393l27 130q19 88 57.5 136t115.5 55l-15 -70q-26 -4 -44.5 -26.5t-24.5 -52.5l-3 -16h52l-33 -156h-132zM152 393l27 130q19 88 57.5 136t115.5 55l-15 -70q-26 -4 -44.5 -26.5t-24.5 -52.5l-3 -16h52l-33 -156h-132z" />
    <glyph glyph-name="quotedblright" unicode="&#x201d;" horiz-adv-x="463" 
d="M187 558l33 156h132l-28 -130q-18 -88 -56.5 -136t-115.5 -55l14 70q26 4 44.5 26.5t24.5 52.5l4 16h-52zM382 558l33 156h132l-28 -130q-18 -88 -56.5 -136t-115.5 -55l14 70q26 4 44.5 26.5t24.5 52.5l4 16h-52z" />
    <glyph glyph-name="quotedblbase" unicode="&#x201e;" horiz-adv-x="463" 
d="M263 0l33 156h132l-27 -130q-19 -88 -57.5 -136t-115.5 -55l15 70q26 4 44.5 26.5t24.5 52.5l3 16h-52zM68 0l33 156h132l-27 -130q-19 -88 -57.5 -136t-115.5 -55l15 70q26 4 44.5 26.5t24.5 52.5l3 16h-52z" />
    <glyph glyph-name="dagger" unicode="&#x2020;" 
d="M281 516l42 198h138l-42 -198h168l-24 -112h-168l-115 -542h-138l115 542h-168l24 112h168z" />
    <glyph glyph-name="daggerdbl" unicode="&#x2021;" 
d="M142 -138l40 190h-168l24 112h168l53 248h-168l23 112h168l41 190h138l-41 -190h168l-23 -112h-168l-53 -248h168l-24 -112h-168l-40 -190h-138z" />
    <glyph glyph-name="bullet" unicode="&#x2022;" horiz-adv-x="500" 
d="M148 357q16 74 79.5 126t136.5 52q74 0 115 -52.5t25 -125.5q-16 -74 -79.5 -126t-136.5 -52q-74 0 -115 52.5t-25 125.5z" />
    <glyph glyph-name="ellipsis" unicode="&#x2026;" horiz-adv-x="1000" 
d="M134 156h132l-33 -156h-132zM467 156h132l-33 -156h-132zM800 156h132l-33 -156h-132z" />
    <glyph glyph-name="perthousand" unicode="&#x2030;" horiz-adv-x="1093" 
d="M910 181q-14 -59 -11.5 -89t30.5 -30t42 27t27 92q14 53 11 82t-31 29t-41 -25t-27 -86zM804 177q22 103 61.5 147t128.5 44t112 -47t-2 -144q-22 -103 -62 -147t-129 -44t-111.5 47t2.5 144zM137 517q22 103 61.5 147t128.5 44t112 -47t-2 -144q-22 -103 -62 -147
t-129 -44t-111.5 47t2.5 144zM244 521q-15 -59 -12.5 -89t30.5 -30t42 26.5t28 92.5q13 53 10 82t-31 29t-41 -25.5t-26 -85.5zM466 177q22 103 61.5 147t128.5 44t112 -47t-2 -144q-22 -103 -62 -147t-129 -44t-111.5 47t2.5 144zM572 181q-14 -59 -11.5 -89t30.5 -30
t42 27t27 92q14 53 11 82t-31 29t-41 -25t-27 -86zM121 -31l567 756h89l-567 -756h-89z" />
    <glyph glyph-name="guilsinglleft" unicode="&#x2039;" horiz-adv-x="241" 
d="M90 208l35 162l174 120l-28 -132l-94 -69l65 -69l-28 -132z" />
    <glyph glyph-name="guilsinglright" unicode="&#x203a;" horiz-adv-x="241" 
d="M65 88l28 132l93 69l-64 69l28 132l124 -120l-35 -162z" />
    <glyph glyph-name="fraction" unicode="&#x2044;" horiz-adv-x="167" 
d="M-171 -31l567 756h89l-567 -756h-89z" />
    <glyph glyph-name="Euro" unicode="&#x20ac;" 
d="M619 661l-67 -100q-38 51 -88 51q-57 0 -88 -49q-19 -31 -38 -98h168l-46 -78h-142l-11 -51h132l-45 -78h-101q-14 -80 -10 -108q6 -61 63 -61q52 0 143 67l-26 -125q-87 -45 -161 -45q-203 0 -152 272h-69l45 78h38l12 51h-68l47 78h41q74 246 280 246q90 0 143 -50z
" />
    <glyph glyph-name="afii61289" unicode="&#x2113;" horiz-adv-x="449" 
d="M424 171l36 -49q-90 -133 -207 -133q-80 0 -109.5 47t-17.5 120l3 12q-10 -7 -29.5 -21.5t-25.5 -18.5l-14 65q11 8 30 22.5t32.5 25.5t25.5 22l54 256q26 120 85 182.5t128 62.5q60 0 80 -48t3 -127q-33 -156 -239 -339l-10 -52q-12 -55 2.5 -83.5t48.5 -28.5
q57 0 124 85zM314 509l-30 -144q126 131 148 232q17 78 -30 78q-52 0 -88 -166z" />
    <glyph glyph-name="trademark" unicode="&#x2122;" horiz-adv-x="990" 
d="M906 300l60 284h-2l-155 -284h-100l-35 284h-2l-60 -284h-106l88 414h169l30 -250h2l136 250h169l-88 -414h-106zM207 300l68 320h-112l20 94h336l-20 -94h-112l-68 -320h-112z" />
    <glyph glyph-name="Omega" unicode="&#x2126;" horiz-adv-x="599" 
d="M165 101l1 3q-76 119 -42 283q28 134 120.5 227t207.5 93q61 0 104.5 -29t62.5 -74t25.5 -100t-7.5 -108q-19 -88 -65 -166t-99 -126l-1 -3h115l-21 -101h-225l16 73q46 32 88.5 107.5t66.5 186.5q23 92 2 163t-86 71q-64 0 -115.5 -66.5t-73.5 -172.5
q-21 -112 -10.5 -185.5t43.5 -103.5l-16 -73h-226l21 101h114z" />
    <glyph glyph-name="estimated" unicode="&#x212e;" horiz-adv-x="1020" 
d="M986 337h-649q-6 0 -6 -4v-197q0 -11 9 -22q104 -107 245 -107q76 0 143 32t116 87h58q-55 -64 -138.5 -101.5t-179.5 -37.5q-166 0 -283 105.5t-117 254.5t117 255t283 106q167 0 284.5 -106t117.5 -255v-10zM839 363v197q0 12 -10 24q-104 102 -244 102t-244 -106
q-10 -10 -10 -24v-193q0 -7 6 -7h497q5 0 5 7z" />
    <glyph glyph-name="partialdiff" unicode="&#x2202;" horiz-adv-x="508" 
d="M229 635l-12 96q81 55 172 55q102 0 151 -96.5t10 -279.5q-41 -197 -129.5 -308t-205.5 -111q-85 0 -118.5 70.5t-13.5 163.5q25 120 96.5 191.5t151.5 71.5q44 0 71 -21.5t34 -45.5h1l7 32q20 91 -5 160.5t-88 69.5q-61 0 -122 -48zM248 96h1q44 0 87 66.5t69 152.5
q-2 26 -21 49.5t-53 23.5q-43 0 -80.5 -50.5t-51.5 -118.5q-12 -54 1 -88.5t48 -34.5z" />
    <glyph glyph-name="Delta" unicode="&#x2206;" horiz-adv-x="571" 
d="M24 0l16 73l331 637h139l51 -635l-16 -75h-521zM165 100h279l-28 279q-1 28 -5.5 94t-5.5 88h-2q-8 -20 -38.5 -80.5t-42.5 -87.5z" />
    <glyph glyph-name="product" unicode="&#x220f;" horiz-adv-x="784" 
d="M759 585h-85v-681h-117v681h-183v-681h-116v681h-86v111h587v-111z" />
    <glyph glyph-name="summation" unicode="&#x2211;" horiz-adv-x="634" 
d="M618 -96h-448v81l210 317l-204 308v86h428v-101h-275v-4l181 -266l-204 -304v-3h312v-114z" />
    <glyph glyph-name="minus" unicode="&#x2212;" horiz-adv-x="600" 
d="M88 191l26 124h506l-26 -124h-506z" />
    <glyph glyph-name="uni2215" unicode="&#x2215;" horiz-adv-x="167" 
d="M-171 -31l567 756h89l-567 -756h-89z" />
    <glyph glyph-name="uni2219" unicode="&#x2219;" horiz-adv-x="240" 
d="M83 282q8 40 42.5 68.5t75.5 28.5q40 0 62 -28t14 -69q-9 -41 -43.5 -69t-74.5 -28q-41 0 -63 28.5t-13 68.5z" />
    <glyph glyph-name="radical" unicode="&#x221a;" horiz-adv-x="678" 
d="M681 838l-195 -974h-93l-128 435l-66 -26l-19 70l156 62l85 -302q3 -15 9 -47.5t8 -44.5l2 -1q12 89 14 99l147 729h80z" />
    <glyph glyph-name="infinity" unicode="&#x221e;" horiz-adv-x="814" 
d="M771 288v-1q0 -73 -44.5 -117.5t-105.5 -44.5q-43 0 -82 23t-83 82q-41 -51 -80.5 -78t-91.5 -27q-60 0 -103 44t-43 113q0 71 43.5 116t110.5 45q88 0 166 -103q48 54 73 72q44 31 96 31q62 0 103 -43t41 -112zM293 190h1q24 0 49 15t38.5 29.5t38.5 44.5q-1 2 -11 15
t-12 15.5t-11 13.5t-12 14t-11 11.5t-12.5 11t-13 7.5t-15 7t-15 3.5t-17.5 1.5q-40 0 -62.5 -27.5t-22.5 -70.5q0 -38 25.5 -64.5t62.5 -26.5zM620 379h-1q-12 0 -23 -3t-22 -10t-19 -12.5t-19 -17t-16 -17t-15.5 -18t-12.5 -15.5q44 -55 70.5 -75.5t61.5 -20.5q36 0 58 29
t22 63q0 43 -23 70t-61 27z" />
    <glyph glyph-name="integral" unicode="&#x222b;" horiz-adv-x="521" 
d="M494 850l-13 -85q-16 8 -30 8q-27 0 -44 -25q-24 -34 -24 -168q0 -80 6 -234t6 -246q0 -140 -32 -201q-34 -71 -120 -71q-42 0 -68 16l15 88q20 -10 37 -10q26 0 38 20q23 35 23 155q0 92 -6.5 251t-6.5 243q0 87 12.5 138.5t41.5 85.5q40 46 109 46q32 0 56 -11z" />
    <glyph glyph-name="approxequal" unicode="&#x2248;" horiz-adv-x="579" 
d="M504 440l41 -36q-20 -45 -51.5 -72.5t-69.5 -27.5q-41 0 -98 37q-47 32 -77 32q-18 0 -34 -11.5t-23.5 -22t-21.5 -33.5l-43 36q20 44 54 71t75 27q13 0 24.5 -2t22.5 -6.5t17.5 -8t17 -9.5t13.5 -8q4 -2 16.5 -10t16.5 -10.5t13 -6.5t15.5 -5.5t13.5 -1.5
q24 0 40.5 16.5t37.5 51.5zM504 266l41 -36q-20 -44 -51.5 -71.5t-69.5 -27.5q-42 0 -98 36q-49 33 -77 33q-18 0 -34 -11.5t-23.5 -23t-21.5 -34.5l-43 37q20 44 54 71t75 27q11 0 21.5 -2t17.5 -4t17 -6.5t14 -6.5t13 -7.5t11 -6.5q5 -3 16 -10.5t16 -10t13.5 -7t16 -6
t14.5 -1.5q24 0 40.5 16.5t37.5 51.5z" />
    <glyph glyph-name="notequal" unicode="&#x2260;" horiz-adv-x="596" 
d="M469 496l-34 -81h118v-70h-143l-52 -126h195v-69h-220l-43 -103l-54 20l35 83h-118v69h143l52 126h-195v70h220l42 101z" />
    <glyph glyph-name="lessequal" unicode="&#x2264;" horiz-adv-x="613" 
d="M568 99l-393 211v76l392 211v-82l-326 -165v-2l327 -166v-83zM572 -8h-401v71h401v-71z" />
    <glyph glyph-name="greaterequal" unicode="&#x2265;" horiz-adv-x="613" 
d="M177 597l393 -211v-75l-393 -212v83l327 165v3l-327 165v82zM571 -8h-399v71h399v-71z" />
    <glyph glyph-name="lozenge" unicode="&#x25ca;" horiz-adv-x="677" 
d="M632 348l-174 -394h-95l-167 394l174 394h95zM528 345l-94 228q-12 42 -17 67h-3q-6 -34 -18 -67l-96 -223l95 -233q11 -32 15 -62h5q9 44 16 60z" />
    </font>
</defs>
</svg>
